<svg width="290" height="291" viewBox="0 0 290 291" fill="none" xmlns="http://www.w3.org/2000/svg">
<g opacity="0.3">
<path d="M223.041 40.3188L221.98 39.4139L220.9 38.5275L219.803 37.6588L218.688 36.8099L217.555 35.9793L216.408 35.169L215.244 34.379L214.065 33.6092L212.873 32.8604L211.666 32.1336L210.447 31.429L209.215 30.7459L207.972 30.0861L206.719 29.4491L205.455 28.836L204.182 28.2462L202.9 27.6804L201.611 27.1398L200.313 26.6232L199.01 26.1324L197.701 25.6667L196.387 25.2262L195.068 24.8116L193.745 24.4233L192.421 24.0615L191.094 23.7267L189.766 23.4183L188.437 23.1369L187.109 22.8826L185.781 22.6559L184.455 22.4563L183.132 22.2843L181.812 22.1399L180.495 22.0238L179.184 21.9353L177.878 21.8751L176.578 21.8432L175.286 21.8389L174 21.8628L172.724 21.9151L171.457 21.9955L170.199 22.1037L168.953 22.2406L167.718 22.4053L166.495 22.5982L165.284 22.8187L164.088 23.0669L162.906 23.3427L161.738 23.6468L160.587 23.9779L159.452 24.3367L158.333 24.7225L157.233 25.1353L156.151 25.5746L155.088 26.0402L154.044 26.5323L153.021 27.0508L152.02 27.5944L151.039 28.1645L150.081 28.7592L149.146 29.3784L148.234 30.0228L147.346 30.6912L146.483 31.3836L145.644 32.0992L144.831 32.8383L144.045 33.5994L143.285 34.3833L142.552 35.1893L141.848 36.0162L141.17 36.8639L140.522 37.7325L139.902 38.6209L139.312 39.5288L138.752 40.4558L138.222 41.4013L137.722 42.3645L137.254 43.345L136.817 44.3426L136.411 45.3557L136.037 46.3846L135.695 47.429L135.385 48.4875L135.109 49.5601L134.865 50.6449L134.655 51.7433L134.477 52.8528L134.333 53.9733L134.222 55.1049L134.145 56.2463L134.102 57.3963L134.093 58.5549L134.118 59.7215L134.177 60.8949L134.269 62.0744L134.395 63.26L134.556 64.45L134.75 65.6442L134.978 66.8415L135.241 68.0419L135.536 69.2435L135.865 70.4463L136.227 71.6498L136.622 72.8532L137.049 74.0548L137.51 75.2546L138.004 76.4519L138.528 77.6455L139.086 78.8355L139.674 80.0199L140.294 81.1987L140.944 82.3715L141.625 83.5362L142.336 84.6936L143.076 85.8424L143.846 86.9813L144.644 88.1098L145.471 89.2279L146.325 90.3343L147.206 91.4284L148.115 92.509L149.048 93.5761L150.008 94.629L150.993 95.6666L152.001 96.6882L153.034 97.6932L154.088 98.6817L155.166 99.6517L156.266 100.604L157.385 101.536L158.526 102.45L159.686 103.343L160.864 104.215L162.061 105.066L163.275 105.895L164.505 106.702L165.751 107.485L167.012 108.245L168.287 108.981L169.574 109.693L170.875 110.38L172.187 111.041L173.51 111.677L174.842 112.286L176.184 112.869L177.534 113.425L178.89 113.954L180.254 114.456L181.623 114.929L182.996 115.374L184.374 115.79L185.754 116.179L187.136 116.538L188.52 116.867L189.903 117.168L191.286 117.439L192.667 117.68L194.046 117.891L195.421 118.073L196.792 118.225L198.159 118.346L199.519 118.438L200.873 118.498L202.219 118.53L203.556 118.53L204.884 118.501L206.202 118.441L207.509 118.352L208.804 118.233L210.087 118.084L211.356 117.904L212.61 117.696L213.851 117.458L215.075 117.191L216.283 116.895L217.473 116.571L218.647 116.217L219.801 115.836L220.935 115.426L222.05 114.989L223.144 114.524L224.217 114.032L225.267 113.514L226.296 112.97L227.301 112.399L228.282 111.803L229.239 111.181L230.172 110.535L231.078 109.864L231.959 109.17L232.813 108.452L233.64 107.712L234.44 106.949L235.212 106.163L235.956 105.357L236.671 104.53L237.358 103.682L238.014 102.814L238.641 101.928L239.238 101.022L239.804 100.099L240.34 99.1578L240.845 98.1994L241.318 97.2251L241.76 96.2355L242.17 95.2304L242.549 94.2107L242.896 93.1774L243.209 92.1306L243.491 91.0715L243.74 90.0007L243.957 88.9183L244.141 87.8254L244.293 86.7227L244.412 85.6102L244.498 84.4897L244.551 83.3612L244.571 82.2253L244.559 81.0833L244.514 79.9351L244.437 78.7814L244.327 77.6234L244.185 76.4617L244.01 75.297L243.804 74.1292L243.565 72.9601L243.295 71.7898L242.993 70.6189L242.66 69.4487L242.296 68.279L241.901 67.1106L241.475 65.9452L241.019 64.7823L240.533 63.6231L240.018 62.4681L239.473 61.3181L238.899 60.1736L238.296 59.0359L237.665 57.9044L237.006 56.7808L236.32 55.6645L235.606 54.5582L234.867 53.4604L234.1 52.373L233.308 51.2961L232.491 50.2303L231.649 49.1767L230.783 48.1348L229.893 47.1065L228.979 46.0916L228.043 45.0909L227.084 44.1049L226.104 43.1343L225.103 42.179L224.082 41.2403L223.041 40.3188Z" fill="#0E0C15"/>
<path d="M209.967 48.3728L210.567 48.847L211.182 49.3053L211.783 49.7691L212.339 50.26L212.833 50.7938L213.286 51.3584L213.731 51.934L214.199 52.5022L214.711 53.049L215.242 53.5847L215.758 54.1228L216.22 54.6781L216.608 55.2618L216.945 55.8656L217.27 56.4793L217.623 57.09L218.027 57.6908L218.455 58.2836L218.865 58.8764L219.217 59.476L219.482 60.0872L219.69 60.7089L219.885 61.3368L220.108 61.9677L220.389 62.5992L220.696 63.2282L220.985 63.8543L221.212 64.4753L221.345 65.0915L221.417 65.707L221.472 66.3256L221.557 66.9535L221.703 67.5918L221.878 68.2337L222.034 68.8696L222.126 69.4894L222.122 70.0871L222.053 70.6726L221.967 71.2592L221.91 71.8588L221.915 72.4805L221.949 73.1114L221.966 73.7331L221.92 74.3284L221.777 74.885L221.57 75.4182L221.344 75.949L221.147 76.4982L221.009 77.0793L220.9 77.6752L220.776 78.2594L220.592 78.8068L220.316 79.3007L219.977 79.7608L219.62 80.2148L219.288 80.6921L219.012 81.2106L218.765 81.7481L218.503 82.2728L218.187 82.7513L217.787 83.1629L217.329 83.5309L216.853 83.8903L216.399 84.2767L215.995 84.7122L215.616 85.1705L215.226 85.6147L214.789 86.0054L214.279 86.3181L213.72 86.5791L213.144 86.8292L212.585 87.1081L212.067 87.4435L211.571 87.8053L211.067 88.1512L210.525 88.4381L209.925 88.639L209.285 88.7821L208.63 88.9117L207.988 89.0727L207.375 89.2932L206.78 89.5432L206.181 89.7773L205.555 89.9493L204.888 90.0292L204.192 90.0476L203.484 90.0513L202.782 90.0863L202.099 90.184L201.428 90.3124L200.756 90.4248L200.071 90.4745L199.363 90.4297L198.638 90.3222L197.905 90.1981L197.171 90.106L196.444 90.0752L195.723 90.0765L195.004 90.063L194.286 89.9874L193.565 89.8197L192.841 89.5893L192.111 89.3424L191.374 89.1249L190.632 88.9676L189.889 88.8417L189.153 88.7023L188.43 88.5044L187.724 88.2194L187.029 87.8748L186.332 87.5135L185.622 87.18L184.894 86.9023L184.158 86.6535L183.433 86.3936L182.734 86.0816L182.072 85.6902L181.433 85.2442L180.797 84.7835L180.143 84.3461L179.457 83.9585L178.758 83.5979L178.073 83.228L177.425 82.814L176.834 82.3317L176.278 81.8028L175.727 81.2598L175.154 80.7364L174.538 80.2547L173.904 79.7958L173.285 79.3308L172.716 78.8313L172.218 78.2778L171.766 77.6863L171.324 77.083L170.855 76.4939L170.333 75.9373L169.788 75.3998L169.26 74.8592L168.79 74.294L168.405 73.6907L168.077 73.0598L167.761 72.4203L167.413 71.7894L167.006 71.18L166.571 70.5847L166.155 69.9901L165.803 69.3825L165.547 68.7534L165.353 68.1084L165.174 67.4572L164.963 66.8091L164.685 66.1721L164.378 65.543L164.089 64.9182L163.868 64.2929L163.749 63.6626L163.698 63.0286L163.664 62.3909L163.595 61.7514L163.459 61.1113L163.289 60.4743L163.138 59.844L163.057 59.2247L163.08 58.6184L163.172 58.0194L163.282 57.4205L163.358 56.8141L163.367 56.1961L163.341 55.5763L163.333 54.9656L163.393 54.3765L163.556 53.8175L163.787 53.2763L164.038 52.7387L164.256 52.1889L164.407 51.6176L164.525 51.0383L164.659 50.4707L164.857 49.9356L165.153 49.4441L165.514 48.9816L165.894 48.5251L166.244 48.0527L166.532 47.549L166.788 47.0329L167.057 46.531L167.385 46.0691L167.801 45.6642L168.278 45.2969L168.771 44.9387L169.239 44.5603L169.651 44.1438L170.035 43.7107L170.429 43.2923L170.872 42.9213L171.393 42.6178L171.965 42.3592L172.554 42.1116L173.121 41.8419L173.642 41.5274L174.136 41.1932L174.639 40.8744L175.181 40.6078L175.784 40.4161L176.431 40.2748L177.091 40.1464L177.736 39.994L178.344 39.7938L178.931 39.5702L179.523 39.3632L180.142 39.2102L180.806 39.1371L181.503 39.1174L182.209 39.1125L182.906 39.0824L183.579 39.0025L184.236 38.8987L184.893 38.8097L185.566 38.7759L186.266 38.8232L186.985 38.9251L187.712 39.0425L188.436 39.1359L189.146 39.1789L189.848 39.1979L190.546 39.2305L191.248 39.3171L191.956 39.4823L192.672 39.701L193.393 39.9357L194.116 40.1483L194.839 40.3129L195.558 40.453L196.271 40.6065L196.974 40.8093L197.666 41.0857L198.352 41.4131L199.039 41.7559L199.735 42.0791L200.443 42.3586L201.154 42.6154L201.854 42.8832L202.534 43.1947L203.183 43.5725L203.813 43.9957L204.442 44.4338L205.085 44.8552L205.751 45.2391L206.427 45.6034L207.09 45.9757L207.72 46.3848L208.302 46.8493L208.854 47.3524L209.401 47.8684L209.967 48.3728Z" fill="#0E0C15"/>
<path d="M232.655 35.7318L231.138 34.4406L229.594 33.1744L228.025 31.9354L226.431 30.7227L224.814 29.5371L223.173 28.3803L221.511 27.2518L219.828 26.1534L218.124 25.0845L216.401 24.0463L214.659 23.0394L212.901 22.0638L211.126 21.1209L209.335 20.2104L207.53 19.3338L205.712 18.4903L203.882 17.6813L202.039 16.9072L200.186 16.1676L198.324 15.4642L196.453 14.7964L194.575 14.1655L192.691 13.5709L190.801 13.0131L188.907 12.4927L187.009 12.0105L185.11 11.5663L183.208 11.1603L181.307 10.7923L179.407 10.4637L177.509 10.1737L175.614 9.92305L173.722 9.71232L171.836 9.54093L169.956 9.40886L168.083 9.31733L166.218 9.2651L164.363 9.25282L162.518 9.28107L160.685 9.34928L158.864 9.45799L157.056 9.60666L155.263 9.79526L153.486 10.0244L151.726 10.2935L149.982 10.6019L148.258 10.9508L146.553 11.339L144.869 11.7672L143.206 12.2347L141.567 12.7415L139.951 13.2877L138.359 13.8719L136.793 14.4948L135.254 15.1564L133.741 15.8555L132.258 16.5921L130.804 17.3661L129.38 18.1777L127.987 19.0248L126.626 19.9088L125.298 20.8278L124.004 21.7825L122.744 22.7715L121.52 23.795L120.332 24.8516L119.181 25.942L118.067 27.065L116.993 28.2193L115.957 29.4056L114.961 30.6226L114.006 31.869L113.092 33.1456L112.221 34.4504L111.391 35.7835L110.605 37.1436L109.863 38.5301L109.165 39.9424L108.511 41.3793L107.903 42.8408L107.341 44.325L106.825 45.8319L106.356 47.3603L105.934 48.9096L105.559 50.478L105.232 52.0654L104.953 53.6712L104.723 55.293L104.541 56.9314L104.408 58.5846L104.324 60.2512L104.289 61.9314L104.303 63.6232L104.368 65.3261L104.481 67.0382L104.644 68.7595L104.856 70.4882L105.119 72.2237L105.43 73.9647L105.79 75.7099L106.2 77.4589L106.659 79.2097L107.167 80.9618L107.723 82.7132L108.328 84.464L108.98 86.2124L109.681 87.957L110.428 89.6974L111.223 91.4322L112.064 93.1603L112.95 94.8798L113.882 96.5907L114.86 98.2917L115.881 99.9805L116.946 101.658L118.055 103.321L119.206 104.969L120.398 106.602L121.632 108.218L122.906 109.816L124.219 111.395L125.571 112.954L126.961 114.491L128.387 116.007L129.85 117.5L131.347 118.968L132.878 120.412L134.443 121.829L136.04 123.219L137.668 124.581L139.326 125.914L141.012 127.218L142.727 128.49L144.468 129.731L146.235 130.94L148.026 132.117L149.84 133.258L151.676 134.365L153.533 135.437L155.409 136.473L157.304 137.471L159.216 138.433L161.143 139.356L163.085 140.241L165.04 141.086L167.008 141.891L168.985 142.656L170.972 143.38L172.968 144.063L174.969 144.705L176.976 145.304L178.987 145.861L181 146.375L183.015 146.846L185.03 147.273L187.044 147.657L189.055 147.998L191.061 148.294L193.063 148.546L195.059 148.754L197.046 148.918L199.024 149.036L200.992 149.111L202.948 149.142L204.891 149.128L206.821 149.07L208.734 148.968L210.631 148.821L212.51 148.632L214.371 148.398L216.21 148.12L218.029 147.8L219.825 147.437L221.598 147.031L223.347 146.583L225.069 146.093L226.764 145.561L228.432 144.989L230.071 144.376L231.681 143.722L233.259 143.029L234.806 142.297L236.321 141.526L237.801 140.718L239.248 139.871L240.66 138.989L242.035 138.069L243.374 137.114L244.675 136.125L245.938 135.101L247.163 134.044L248.348 132.953L249.492 131.832L250.596 130.679L251.658 129.495L252.678 128.282L253.656 127.039L254.591 125.769L255.483 124.472L256.33 123.148L257.134 121.799L257.893 120.425L258.606 119.027L259.275 117.607L259.898 116.165L260.475 114.701L261.005 113.218L261.49 111.716L261.928 110.195L262.319 108.657L262.663 107.102L262.961 105.533L263.211 103.948L263.415 102.351L263.572 100.741L263.681 99.1198L263.744 97.4876L263.76 95.8461L263.729 94.1954L263.651 92.5374L263.526 90.8732L263.355 89.2029L263.139 87.5282L262.876 85.8493L262.568 84.1679L262.213 82.4847L261.814 80.8008L261.37 79.1163L260.881 77.4337L260.348 75.7529L259.772 74.0752L259.152 72.4012L258.489 70.7321L257.784 69.0685L257.036 67.4123L256.247 65.7635L255.417 64.1226L254.546 62.4922L253.636 60.8717L252.686 59.2621L251.697 57.6649L250.67 56.0806L249.605 54.5104L248.504 52.9549L247.366 51.4148L246.192 49.8913L244.984 48.3844L243.741 46.8959L242.465 45.4264L241.155 43.9766L239.814 42.5471L238.441 41.1385L237.038 39.7526L235.605 38.3888L234.144 37.0483L232.655 35.7318Z" fill="#0E0C15"/>
<path d="M238.545 35.5691L236.646 33.9528L234.713 32.3691L232.749 30.8185L230.754 29.3012L228.73 27.8188L226.677 26.3708L224.597 24.9597L222.491 23.5849L220.359 22.2481L218.204 20.9489L216.025 19.6895L213.825 18.4689L211.605 17.2887L209.365 16.1498L207.106 15.052L204.831 13.996L202.54 12.983L200.235 12.0136L197.916 11.0878L195.585 10.2062L193.243 9.36892L190.892 8.57768L188.532 7.83129L186.166 7.13157L183.793 6.47856L181.415 5.87282L179.035 5.31381L176.652 4.80329L174.269 4.3401L171.886 3.92544L169.505 3.5593L167.127 3.24232L164.754 2.97447L162.386 2.75638L160.026 2.58745L157.673 2.46827L155.331 2.39946L152.999 2.38042L150.679 2.41114L148.373 2.49223L146.081 2.62368L143.806 2.80554L141.549 3.03774L139.31 3.31973L137.09 3.65268L134.892 4.03539L132.716 4.46788L130.565 4.95012L128.438 5.48274L126.337 6.0645L124.265 6.69603L122.221 7.37668L120.206 8.10588L118.223 8.88361L116.273 9.70987L114.356 10.584L112.474 11.5055L110.628 12.4743L108.819 13.4898L107.048 14.5513L105.317 15.659L103.626 16.8114L101.977 18.0087L100.37 19.2503L98.808 20.5354L97.2898 21.863L95.8181 23.2335L94.3931 24.6452L93.0158 26.0981L91.687 27.5903L90.4078 29.1224L89.1794 30.6926L88.0026 32.3009L86.8785 33.946L85.8071 35.6268L84.7902 37.3432L83.8279 39.0934L82.9208 40.8762L82.07 42.6921L81.2756 44.5381L80.5395 46.4149L79.8616 48.3205L79.2425 50.2544L78.6829 52.2153L78.1828 54.2014L77.7433 56.212L77.3645 58.2461L77.0464 60.3022L76.7908 62.3792L76.5965 64.4759L76.4647 66.591L76.3954 68.7233L76.3887 70.8715L76.4451 73.034L76.564 75.2099L76.7461 77.3969L76.9912 79.5949L77.2995 81.8021L77.6716 84.0162L78.1062 86.2369L78.6038 88.4626L79.1641 90.6913L79.7868 92.9226L80.4715 95.1538L81.218 97.3838L82.0265 99.6119L82.8963 101.836L83.8267 104.054L84.8178 106.266L85.8677 108.469L86.9772 110.663L88.1454 112.845L89.3713 115.015L90.6542 117.17L91.994 119.309L93.3891 121.433L94.8387 123.537L96.3422 125.62L97.8991 127.683L99.5074 129.723L101.167 131.738L102.876 133.729L104.635 135.691L106.441 137.626L108.293 139.531L110.191 141.405L112.133 143.247L114.117 145.056L116.144 146.829L118.21 148.566L120.315 150.266L122.458 151.928L124.636 153.55L126.849 155.132L129.095 156.672L131.373 158.169L133.68 159.623L136.016 161.032L138.378 162.394L140.766 163.711L143.177 164.979L145.611 166.199L148.064 167.371L150.536 168.492L153.025 169.562L155.53 170.581L158.048 171.547L160.577 172.462L163.117 173.322L165.665 174.129L168.22 174.882L170.78 175.58L173.343 176.223L175.907 176.81L178.471 177.341L181.033 177.816L183.592 178.234L186.145 178.597L188.691 178.902L191.228 179.15L193.755 179.342L196.269 179.476L198.77 179.553L201.255 179.574L203.724 179.537L206.174 179.443L208.603 179.294L211.011 179.088L213.395 178.825L215.755 178.507L218.088 178.133L220.394 177.704L222.67 177.221L224.915 176.683L227.129 176.092L229.309 175.447L231.455 174.749L233.564 173.999L235.636 173.198L237.67 172.345L239.664 171.442L241.617 170.49L243.528 169.49L245.396 168.441L247.219 167.344L248.998 166.202L250.73 165.014L252.415 163.781L254.052 162.504L255.64 161.185L257.178 159.823L258.666 158.421L260.102 156.979L261.486 155.497L262.817 153.978L264.094 152.422L265.317 150.83L266.486 149.203L267.6 147.543L268.657 145.85L269.658 144.126L270.603 142.372L271.49 140.588L272.32 138.775L273.092 136.937L273.806 135.073L274.462 133.184L275.059 131.272L275.598 129.338L276.077 127.383L276.498 125.409L276.859 123.416L277.161 121.405L277.404 119.379L277.588 117.338L277.713 115.284L277.779 113.217L277.786 111.139L277.734 109.051L277.624 106.954L277.456 104.85L277.229 102.74L276.945 100.625L276.604 98.5055L276.205 96.3842L275.75 94.2612L275.237 92.1381L274.67 90.0156L274.046 87.8956L273.368 85.7786L272.635 83.6666L271.848 81.5601L271.009 79.4604L270.115 77.3692L269.17 75.2867L268.173 73.2146L267.125 71.1535L266.027 69.1054L264.879 67.0708L263.682 65.0503L262.437 63.0464L261.145 61.059L259.806 59.0895L258.421 57.1391L256.991 55.2082L255.517 53.2983L254 51.4105L252.44 49.5461L250.839 47.7049L249.197 45.889L247.515 44.0995L245.795 42.3358L244.036 40.6003L242.241 38.8937L240.41 37.216L238.545 35.5691Z" fill="#0E0C15"/>
<path d="M241.372 37.9176L239.425 36.1987L237.443 34.5124L237.073 34.1991L235.098 32.5803L233.091 30.9954L231.052 29.4448L228.983 27.9299L226.885 26.4506L224.759 25.0076L222.606 23.6027L220.428 22.2364L218.224 20.9089L215.998 19.6213L213.749 18.3742L211.48 17.1683L209.19 16.0041L206.883 14.8818L204.557 13.803L202.216 12.7673L199.86 11.7764L197.489 10.8297L197.034 10.6553L194.602 9.73563L192.158 8.86207L189.705 8.03641L187.242 7.25746L184.772 6.52702L182.295 5.84576L179.814 5.21301L178.987 5.01273L176.453 4.41807L173.917 3.87439L171.379 3.38109L168.841 2.9394L166.306 2.54932L165.222 2.38897L162.642 2.04433L160.065 1.75315L157.495 1.51603L153.655 1.24019L151.055 1.1075L148.465 1.03071L145.886 1.00859L144.475 1L141.866 1.03378L139.27 1.12409L137.781 1.20517L135.159 1.35446L132.556 1.56087L129.971 1.8244L128.371 2.00318L125.767 2.32939L123.186 2.71334L121.526 2.98915L118.93 3.43761L116.36 3.94565L114.649 4.31978L112.071 4.89417L109.52 5.52815L107.767 6.00239L105.214 6.70518L102.693 7.46693L100.905 8.04256L98.3869 8.87435L95.9039 9.76634L94.0915 10.4433L91.6164 11.406L89.1794 12.4282L87.3504 13.2065L84.9275 14.3006L83.1144 15.1674L80.7086 16.3334L78.347 17.5596L76.5327 18.5253L74.1937 19.8234L72.4058 20.8751L70.0932 22.2444L67.8296 23.6739L66.0546 24.8202L63.8229 26.321L62.0846 27.5484L59.8878 29.1192L57.745 30.7491L56.0324 32.0661L53.9301 33.7647L52.2641 35.1574L50.2059 36.9248L48.5902 38.3893L46.5791 40.2249L44.6281 42.1164L43.056 43.6602L41.1571 45.6168L39.6438 47.2263L37.7994 49.2468L36.348 50.9184L34.5613 53.0009L32.8414 55.1369L31.4494 56.8742L29.7914 59.0698L28.4681 60.8605L26.8751 63.1127L25.6235 64.9538L24.0985 67.2611L22.921 69.1477L21.4647 71.5073L20.0813 73.9148L18.9799 75.8456L17.6688 78.3017L16.647 80.2688L15.4107 82.7703L14.4705 84.7693L13.3108 87.3132L12.4545 89.3398L11.3733 91.9242L10.3699 94.5486L9.59947 96.5943L8.6764 99.2537L7.99358 101.316L7.15139 104.007L6.55626 106.081L5.79619 108.8L5.11708 111.554L4.61203 113.626L4.01623 116.401L3.60068 118.474L3.08826 121.268L2.76219 123.337L2.33373 126.147L1.98742 128.984L1.75266 131.028L1.49034 133.875L1.34567 135.903L1.1667 138.755L1.06985 141.628L1.0147 143.616L1 146.489L1.03247 148.45L1.09929 151.319L1.24886 154.203L1.36591 156.107L1.59513 158.982L2.10511 163.707L2.49369 166.576L2.77442 168.371L3.23966 171.221L3.78395 174.076L4.13943 175.791L4.7573 178.62L5.45295 181.451L5.87771 183.079L6.64328 185.878L7.48607 188.675L7.97521 190.207L8.88358 192.968L9.86793 195.722L10.4135 197.151L11.4591 199.863L12.5777 202.565L13.7693 205.256L14.3491 206.54L15.5952 209.181L16.9118 211.808L18.8983 215.547L20.3326 218.101L21.8343 220.635L23.4022 223.148L24.0078 224.115L25.6155 226.566L27.2864 228.993L29.0191 231.392L29.6149 232.191L31.3802 234.524L33.2042 236.828L35.086 239.101L37.0247 241.34L39.018 243.546L39.5218 244.096L41.5346 246.23L43.599 248.326L45.7136 250.384L47.8773 252.403L50.0888 254.381L52.3462 256.316L54.6484 258.207L54.9433 258.442L57.246 260.256L59.5893 262.023L61.9718 263.744L64.3917 265.417L66.8477 267.041L69.3374 268.614L71.8597 270.137L74.4125 271.606L76.9942 273.022L79.6035 274.384L82.2379 275.691L84.8962 276.941L87.576 278.135L90.2753 279.271L90.6271 279.417L93.3945 280.514L96.1779 281.55L98.9765 282.526L101.787 283.44L104.609 284.292L107.439 285.081L110.277 285.807L111.004 285.983L113.895 286.657L116.789 287.266L119.684 287.809L122.578 288.287L125.469 288.699L126.458 288.835L129.39 289.186L132.317 289.47L135.234 289.688L136.374 289.75L139.324 289.902L142.262 289.985L145.185 290L146.463 289.978L149.411 289.924L152.339 289.801L155.247 289.609L156.65 289.495L159.573 289.231L162.471 288.898L165.341 288.496L166.855 288.281L169.733 287.804L172.578 287.258L174.154 286.944L177 286.323L179.811 285.633L181.438 285.216L184.243 284.451L187.008 283.617L188.678 283.098L191.429 282.187L194.137 281.21L195.841 280.586L198.529 279.533L200.232 278.814L202.897 277.685L205.512 276.489L207.231 275.669L209.816 274.399L212.348 273.064L214.075 272.142L216.571 270.734L218.28 269.723L220.736 268.243L223.133 266.7L224.833 265.591L227.185 263.978L228.855 262.783L231.158 261.101L233.398 259.361L235.045 258.073L237.231 256.267L238.838 254.899L240.967 253.03L242.53 251.584L244.599 249.651L246.599 247.666L248.12 246.139L250.056 244.096L251.525 242.498L253.393 240.399L254.804 238.733L256.604 236.58L258.329 234.378L259.683 232.646L261.336 230.396L262.626 228.604L264.205 226.307L265.426 224.459L266.93 222.12L268.081 220.219L269.506 217.839L270.855 215.419L271.931 213.474L273.201 211.017L274.201 209.03L275.39 206.541L276.312 204.515L277.419 201.997L278.261 199.937L279.288 197.394L280.235 194.819L280.991 192.738L281.856 190.142L282.528 188.038L283.311 185.424L283.897 183.3L284.599 180.673L285.221 178.021L285.717 175.897L286.258 173.236L286.667 171.103L287.127 168.437L287.448 166.3L287.828 163.632L288.131 160.945L288.361 158.829L288.586 156.146L288.727 154.036L288.874 151.36L288.946 148.669L288.999 146.595L288.995 143.916L288.96 141.86L288.882 139.196L288.731 136.521L288.611 134.515L288.388 131.861L288.183 129.883L287.892 127.252L287.53 124.616L287.245 122.702L286.817 120.093L286.32 117.482L285.958 115.639L285.4 113.061L284.773 110.482L284.339 108.718L283.655 106.176L282.904 103.637L282.404 101.958L281.6 99.4595L280.732 96.9672L280.171 95.381L279.254 92.9317L278.275 90.4917L277.658 89.0044L276.634 86.6116L275.551 84.2293L273.76 80.5169L272.58 78.1985L271.343 75.8942L270.656 74.6637L269.386 72.4147L268.062 70.1816L266.685 67.9664L264.585 64.7363L263.131 62.5985L261.628 60.4815L260.076 58.3867L259.413 57.5162L257.843 55.4828L256.228 53.4727L254.567 51.4873L252.862 49.5276L251.114 47.5949L250.542 46.9683L248.786 45.1002L246.991 43.2603L245.156 41.4493L243.283 39.6677L241.372 37.9176Z" fill="#0E0C15"/>
<path d="M123.186 2.71334L120.628 3.15569L118.095 3.65634L115.589 4.21478L113.111 4.83093L110.662 5.50483L108.245 6.23587L105.861 7.02466L103.509 7.86997L101.194 8.77118L98.9141 9.72952L96.6732 10.7431L94.4722 11.8121L92.3116 12.9363L90.1933 14.1152L88.1185 15.3481L86.089 16.6345L84.1056 17.9737L82.1693 19.3651L80.2821 20.8082L78.4445 22.3022L76.659 23.8466L74.9256 25.4408L73.2462 27.0834L71.6219 28.774L70.0534 30.5119L68.5413 32.2965L67.088 34.126L65.6942 35.9997L64.3611 37.9176L63.0892 39.8773L61.8799 41.8787L60.7337 43.9207L59.6513 46.0014L58.6344 48.1202L57.6831 50.2765L56.7987 52.4678L55.9823 54.694L55.2345 56.9535L54.5553 59.2449L53.9455 61.567L53.4061 63.918L52.9378 66.2973L52.54 68.703L52.2152 71.1338L51.962 73.5881L51.7818 76.065L51.6751 78.5616L51.6414 81.0778L51.6807 83.6119L51.7947 86.1613L51.9816 88.7255L52.2433 91.302L52.5792 93.8901L52.9893 96.4874L53.4735 99.0922L54.0313 101.704L54.6626 104.319L55.3681 106.937L56.1465 109.556L56.9979 112.175L57.9222 114.791L58.9194 117.403L59.9878 120.009L61.1272 122.606L62.3372 125.195L63.617 127.772L64.9654 130.336L66.3832 132.886L67.8689 135.419L69.4209 137.934L71.039 140.428L72.7221 142.901L74.4684 145.35L76.2778 147.775L78.1491 150.172L80.0804 152.542L82.0712 154.88L84.1203 157.187L86.2257 159.46L88.3869 161.699L90.6015 163.9L92.8681 166.064L95.1856 168.188L97.5528 170.271L99.9677 172.311L102.429 174.306L104.934 176.257L107.483 178.16L110.072 180.015L112.7 181.821L115.366 183.577L118.067 185.279L120.802 186.929L123.569 188.524L126.366 190.064L129.191 191.547L132.041 192.973L134.917 194.341L137.813 195.649L140.73 196.897L143.665 198.084L146.616 199.208L149.581 200.271L152.558 201.27L155.544 202.205L158.539 203.076L161.538 203.881L164.542 204.621L167.548 205.296L170.552 205.903L173.554 206.445L176.552 206.919L179.543 207.327L182.525 207.668L185.497 207.94L188.456 208.146L191.401 208.284L194.329 208.354L197.238 208.358L200.127 208.294L202.994 208.163L205.836 207.966L208.652 207.703L211.441 207.373L214.2 206.977L216.928 206.516L219.621 205.991L222.281 205.4L224.904 204.747L227.49 204.03L230.035 203.25L232.539 202.409L235 201.507L237.417 200.544L239.788 199.522L242.112 198.441L244.389 197.302L246.615 196.107L248.79 194.855L250.914 193.549L252.983 192.189L254.998 190.775L256.957 189.31L258.86 187.794L260.705 186.228L262.491 184.614L264.218 182.953L265.884 181.246L267.489 179.493L269.032 177.697L270.512 175.858L271.928 173.978L273.28 172.059L274.568 170.101L275.791 168.105L276.947 166.075L278.037 164.009L279.06 161.909L280.016 159.779L280.905 157.618L281.726 155.428L282.479 153.21L283.164 150.966L283.78 148.697L284.328 146.405L284.807 144.091L285.217 141.756L285.559 139.402L285.832 137.031L286.037 134.643L286.173 132.24L286.24 129.824L286.24 127.396L286.171 124.957L286.034 122.509L285.831 120.054L285.56 117.592L285.223 115.125L284.819 112.655L284.349 110.183L283.813 107.71L283.213 105.237L282.547 102.767L281.818 100.299L281.026 97.8371L280.171 95.381" fill="#0E0C15"/>
<path d="M74.1948 19.8234L71.9025 21.1811L69.6591 22.5977L67.4654 24.0727L65.3232 25.6048L63.2337 27.194L61.1987 28.8404L59.2202 30.5415L57.298 32.2978L55.4341 34.1082L53.6302 35.9715L51.887 37.8869L50.2057 39.854L48.5882 41.8708L47.0356 43.9367L45.5487 46.0512L44.1291 48.2124L42.777 50.4203L41.4947 52.6723L40.2823 54.9681L39.141 57.3062L38.0721 59.6854L37.076 62.1046L36.1548 64.5619L35.3083 67.056L34.5373 69.5864L33.8428 72.1506L33.2256 74.7473L32.6856 77.3754L32.2247 80.0329L31.8422 82.7187L31.54 85.431L31.3181 88.1677L31.1765 90.9279L31.1153 93.7095L31.1355 96.5108L31.2372 99.3299L31.4205 102.165L31.6859 105.015L32.0328 107.878L32.4625 110.75L32.9737 113.633L33.5664 116.521L34.2412 119.415L34.997 122.313L35.8342 125.211L36.7524 128.109L37.7515 131.004L38.8309 133.895L39.9893 136.779L41.2275 139.656L42.5435 142.521L43.9373 145.374L45.4077 148.213L46.9541 151.035L48.5766 153.84L50.2732 156.623L52.0433 159.385L53.8852 162.123L55.7982 164.834L57.781 167.518L59.8325 170.172L61.9521 172.794L64.1372 175.383L66.3873 177.935L68.7005 180.451L71.075 182.927L73.5096 185.363L76.003 187.756L78.5528 190.106L81.1578 192.408L83.8161 194.663L86.5259 196.869L89.2853 199.024L92.0926 201.127L94.9452 203.176L97.8419 205.17L100.78 207.107L103.759 208.985L106.774 210.804L109.826 212.563L112.911 214.259L116.026 215.893L119.172 217.462L122.344 218.967L125.54 220.404L128.759 221.775L131.998 223.077L135.255 224.31L138.527 225.473L141.813 226.566L145.11 227.588L148.415 228.537L151.726 229.414L155.042 230.218L158.36 230.949L161.676 231.605L164.99 232.188L168.299 232.695L171.6 233.129L174.892 233.488L178.171 233.771L181.437 233.98L184.686 234.113L187.916 234.171L191.126 234.155L194.314 234.064L197.476 233.899L200.611 233.66L203.717 233.347L206.792 232.96L209.834 232.502L212.842 231.97L215.812 231.366L218.743 230.692L221.633 229.947L224.482 229.132L227.287 228.249L230.045 227.296L232.755 226.277L235.417 225.191L238.028 224.039L240.587 222.822L243.091 221.542L245.541 220.2L247.935 218.796L250.269 217.332L252.546 215.808L254.761 214.226L256.915 212.587L259.005 210.893L261.033 209.144L262.995 207.343L264.892 205.489L266.722 203.586L268.483 201.633L270.176 199.632L271.8 197.586L273.354 195.495L274.836 193.36L276.248 191.184L277.588 188.967L278.855 186.711L280.049 184.419L281.169 182.09L282.215 179.727L283.187 177.331L284.085 174.904L284.908 172.448L285.656 169.963L286.329 167.451L286.926 164.915L287.448 162.355L287.894 159.774L288.266 157.172L288.562 154.552L288.783 151.914L288.929 149.262L289 146.595" fill="#0E0C15"/>
<path d="M37.7994 49.2468L36.0205 51.3221L34.3074 53.4495L32.6623 55.6291L31.0858 57.8597L29.5792 60.1394L28.1437 62.4683L26.7805 64.8439L25.4909 67.2655L24.2754 69.732L23.1354 72.2415L22.072 74.7934L21.087 77.3858L20.1798 80.017L19.3517 82.6862L18.6045 85.391L17.9377 88.1303L17.3523 90.9027L16.8491 93.7065L16.4293 96.5397L16.0928 99.4006L15.8408 102.288L15.6735 105.2L15.5907 108.134L15.5932 111.09L15.6815 114.064L15.8555 117.055L16.1154 120.062L16.4623 123.081L16.8951 126.112L17.4143 129.153L18.0198 132.201L18.7112 135.254L19.4878 138.311L20.3508 141.369L21.299 144.427L22.3324 147.481L23.4504 150.53L24.6524 153.573L25.9377 156.607L27.3052 159.63L28.7554 162.639L30.2865 165.633L31.8979 168.611L33.589 171.568L35.3592 174.504L37.2065 177.416L39.1306 180.303L41.1293 183.162L43.2023 185.991L45.3476 188.789L47.5646 191.553L49.8514 194.281L52.2069 196.971L54.6293 199.622L57.1166 202.232L59.6676 204.797L62.2805 207.318L64.9536 209.791L67.6854 212.216L70.473 214.59L73.3158 216.911L76.2113 219.179L79.1571 221.391L82.1513 223.546L85.1921 225.642L88.2776 227.678L91.4048 229.652L94.5725 231.563L97.7775 233.41L101.018 235.19L104.292 236.904L107.597 238.55L110.93 240.126L114.289 241.632L117.672 243.066L121.077 244.428L124.501 245.717L127.941 246.931L131.395 248.071L134.861 249.135L138.337 250.123L141.819 251.034L145.305 251.868L148.793 252.624L152.282 253.301L155.766 253.9L159.246 254.419L162.718 254.86L166.18 255.222L169.63 255.504L173.064 255.708L176.481 255.831L179.879 255.875L183.255 255.84L186.607 255.727L189.933 255.534L193.231 255.264L196.497 254.916L199.731 254.491L202.93 253.987L206.093 253.409L209.216 252.754L212.299 252.024L215.339 251.22L218.334 250.342L221.283 249.392L224.183 248.37L227.033 247.277L229.831 246.113L232.577 244.881L235.267 243.58L237.9 242.213L240.476 240.781L242.991 239.283L245.446 237.722L247.839 236.099L250.167 234.415L252.431 232.672L254.629 230.869L256.76 229.011L258.823 227.097L260.816 225.129L262.739 223.108L264.59 221.036L266.37 218.914L268.076 216.744L269.709 214.527L271.268 212.266L272.752 209.96L274.16 207.613L275.491 205.226L276.747 202.799L277.924 200.336L279.024 197.836L280.047 195.303L280.991 192.738" fill="#0E0C15"/>
<path d="M13.3102 87.3131L12.2277 89.9L11.2237 92.5269L10.2982 95.1936L9.45297 97.8979L8.68804 100.639L8.00458 103.414L7.40268 106.223L6.88413 109.062L6.44897 111.931L6.09836 114.829L5.83233 117.753L5.65153 120.701L5.55591 123.671L5.54674 126.663L5.62336 129.673L5.78639 132.7L6.03645 135.743L6.37359 138.799L6.79771 141.866L7.30893 144.942L7.90713 148.025L8.59178 151.114L9.36285 154.205L10.2204 157.298L11.1643 160.39L12.1934 163.478L13.3083 166.562L14.5085 169.638L15.7919 172.704L17.1588 175.759L18.609 178.801L20.1407 181.827L21.754 184.835L23.4475 187.823L25.2207 190.789L27.0718 193.731L29.0007 196.646L31.0044 199.533L33.0835 202.39L35.2361 205.215L37.4604 208.005L39.7559 210.758L42.1206 213.474L44.5527 216.148L47.0504 218.781L49.6131 221.369L52.2383 223.911L54.9242 226.406L57.669 228.851L60.4713 231.244L63.3288 233.584L66.2396 235.869L69.2019 238.097L72.2127 240.268L75.2712 242.379L78.3745 244.428L81.5201 246.415L84.7068 248.337L87.932 250.194L91.1928 251.985L94.488 253.708L97.8138 255.362L101.169 256.945L104.551 258.457L107.957 259.896L111.385 261.261L114.832 262.553L118.297 263.769L121.775 264.909L125.267 265.973L128.767 266.961L132.275 267.869L135.787 268.7L139.302 269.451L142.816 270.123L146.328 270.715L149.835 271.228L153.334 271.661L156.823 272.013L160.3 272.285L163.762 272.477L167.207 272.589L170.632 272.62L174.037 272.571L177.417 272.443L180.771 272.234L184.096 271.948L187.391 271.582L190.653 271.138L193.88 270.616L197.071 270.017L200.222 269.342L203.333 268.59L206.4 267.764L209.423 266.863L212.399 265.889L215.326 264.842L218.204 263.724L221.029 262.535L223.8 261.276L226.517 259.948L229.176 258.554L231.777 257.093L234.319 255.566L236.799 253.976L239.216 252.323L241.569 250.609L243.857 248.834L246.079 247.001L248.234 245.111L250.319 243.165L252.336 241.164L254.28 239.11L256.154 237.005L257.955 234.85L259.682 232.646" fill="#0E0C15"/>
<path d="M224.833 265.591L222.42 267.142L219.949 268.631L217.42 270.057L214.835 271.419L212.196 272.716L209.503 273.946L206.759 275.108L203.965 276.202L201.123 277.226L198.234 278.18L195.301 279.062L192.325 279.872L189.308 280.609L186.251 281.274L183.157 281.863L180.029 282.378L176.867 282.818L173.673 283.181L170.451 283.468L167.201 283.679L163.926 283.812L160.629 283.868L157.312 283.846L153.976 283.747L150.624 283.57L147.258 283.314L143.881 282.981L140.495 282.57L137.101 282.082L133.704 281.516L130.304 280.873L126.904 280.153L123.507 279.356L120.114 278.483L116.729 277.535L113.354 276.512L109.991 275.414L106.641 274.243L103.31 272.999L99.996 271.683L96.7046 270.296L93.4364 268.837L90.1946 267.31L86.9809 265.715L83.798 264.052L80.6475 262.323L77.5325 260.53L74.4544 258.673L71.4161 256.753L68.4194 254.772L65.4663 252.732L62.5585 250.634L59.6986 248.479L56.8883 246.27L54.1301 244.006L51.4246 241.691L48.7754 239.326L46.1827 236.912L43.6494 234.451L41.1768 231.946L38.7662 229.397L36.4193 226.807L34.1379 224.177L31.9234 221.511L29.7775 218.808L27.7015 216.071L25.696 213.303L23.7634 210.504L21.9037 207.678L20.1182 204.826L18.4087 201.95L16.7765 199.052L15.2215 196.135L13.7455 193.2L12.348 190.249L11.0315 187.284L9.79517 184.307L8.63978 181.322L7.56654 178.328L6.57602 175.329L5.66829 172.327L4.84387 169.323L4.10344 166.32L3.4464 163.319L2.87267 160.322L2.38356 157.332L1.9784 154.35L1.65723 151.379L1.42061 148.42L1.26738 145.475L1.19873 142.547L1.21283 139.636L1.31029 136.744L1.49034 133.875" fill="#0E0C15"/>
<path d="M7.48607 188.675L8.40611 191.469L9.40213 194.256L10.4742 197.036L11.621 199.807L12.8426 202.566L14.1383 205.311L15.5076 208.042L16.9492 210.755L18.4626 213.45L20.0476 216.124L21.7019 218.774L23.4255 221.401L25.2171 224.001L27.0749 226.573L28.9989 229.115L30.9873 231.625L33.0388 234.102L35.1528 236.543L37.3269 238.948L39.5598 241.313L41.8509 243.638L44.1973 245.921L46.5988 248.16L49.0529 250.354L51.5586 252.501L54.114 254.6L56.7171 256.649L59.3662 258.646L62.0595 260.591L64.795 262.483L67.571 264.318L70.3862 266.097L73.2376 267.818L76.1233 269.479L79.0427 271.08L81.9915 272.62L84.9698 274.097L87.9738 275.511L91.0023 276.861L94.0535 278.145L97.1249 279.363L100.213 280.514L103.319 281.597L106.437 282.612L109.567 283.558L112.707 284.435L115.854 285.241L119.005 285.977L122.16 286.641L125.314 287.234L128.468 287.755L131.618 288.205L134.762 288.583L137.898 288.888L141.024 289.121L144.138 289.282L147.237 289.37L150.32 289.386L153.384 289.33L156.429 289.202L159.451 289.003L162.448 288.732L165.419 288.39L168.362 287.978L171.274 287.496L174.154 286.944" fill="#0E0C15"/>
<path d="M123.186 2.71334L125.767 2.32939L128.371 2.00318L129.971 1.8244L132.556 1.56087L135.159 1.35446L137.781 1.20517L139.27 1.12409L141.866 1.03378L144.475 1L145.886 1.00859L148.465 1.03071L151.055 1.1075L153.655 1.24019L157.495 1.51603L160.065 1.75315L162.642 2.04433L165.222 2.38897L166.306 2.54932L168.841 2.9394L171.379 3.38109L173.917 3.87439L176.453 4.41807L178.987 5.01273L179.814 5.21301L182.295 5.84576L184.772 6.52702L187.242 7.25746L189.705 8.03641L192.158 8.86207L194.602 9.73563L197.034 10.6553L197.489 10.8297L199.86 11.7764L202.216 12.7673L204.557 13.803L206.883 14.8818L209.19 16.0041L211.48 17.1683L213.749 18.3742L215.998 19.6213L218.224 20.9089L220.428 22.2364L222.606 23.6027L224.759 25.0076L226.885 26.4506L228.983 27.9299L231.052 29.4448L233.091 30.9954L235.098 32.5803L237.073 34.1991L237.443 34.5124L239.425 36.1987L241.372 37.9176L243.283 39.6677L245.156 41.4493L246.991 43.2603L248.786 45.1002L250.542 46.9683L251.114 47.5949L252.862 49.5276L254.567 51.4873L256.228 53.4727L257.843 55.4828L259.413 57.5162L260.076 58.3867L261.628 60.4815L263.131 62.5985L264.585 64.7363L266.685 67.9664L268.062 70.1816L269.386 72.4147L270.656 74.6637L271.343 75.8942L272.58 78.1985L273.76 80.5169L275.551 84.2293L276.634 86.6116L277.658 89.0044L278.275 90.4917L279.254 92.9317L280.171 95.381M123.186 2.71334L121.526 2.98915L118.93 3.43761L116.36 3.94565L114.649 4.31978L112.071 4.89417L109.52 5.52815L107.767 6.00239L105.214 6.70518L102.693 7.46693L100.905 8.04256L98.3869 8.87435L95.9039 9.76634L94.0915 10.4433L91.6164 11.406L89.1794 12.4282L87.3504 13.2065L84.9275 14.3006L83.1144 15.1674L80.7086 16.3334L78.347 17.5596L76.5327 18.5253L74.1937 19.8234L72.4058 20.8751L70.0932 22.2444L67.8296 23.6739L66.0546 24.8202L63.8229 26.321L62.0846 27.5484L59.8878 29.1193L57.745 30.749L56.0324 32.0661L53.9301 33.7647L52.2641 35.1574L50.2059 36.9248L48.5902 38.3893L46.5791 40.2249L44.6281 42.1164L43.056 43.6602L41.1571 45.6168L39.6438 47.2263L37.7994 49.2468M123.186 2.71334L120.628 3.15569L118.095 3.65634L115.589 4.21478L113.111 4.83093L110.662 5.50483L108.245 6.23587L105.861 7.02466L103.509 7.86997L101.194 8.77118L98.9141 9.72952L96.6732 10.7431L94.4722 11.8121L92.3116 12.9363L90.1933 14.1152L88.1185 15.3481L86.089 16.6345L84.1056 17.9737L82.1693 19.3651L80.2821 20.8082L78.4445 22.3022L76.659 23.8466L74.9256 25.4408L73.2462 27.0834L71.6219 28.7741L70.0534 30.5119L68.5413 32.2965L67.088 34.126L65.6942 35.9997L64.3611 37.9176L63.0892 39.8773L61.8799 41.8787L60.7337 43.9207L59.6513 46.0014L58.6344 48.1202L57.6831 50.2765L56.7987 52.4678L55.9823 54.694L55.2345 56.9535L54.5553 59.2449L53.9455 61.567L53.4061 63.918L52.9378 66.2973L52.54 68.703L52.2152 71.1338L51.962 73.5881L51.7818 76.065L51.6751 78.5616L51.6414 81.0778L51.6807 83.6119L51.7947 86.1613L51.9816 88.7255L52.2433 91.302L52.5792 93.8901L52.9893 96.4875L53.4735 99.0922L54.0313 101.704L54.6626 104.319L55.3681 106.937L56.1465 109.556L56.9979 112.175L57.9222 114.791L58.9194 117.403L59.9878 120.009L61.1272 122.606L62.3372 125.195L63.617 127.772L64.9654 130.336L66.3832 132.886L67.8689 135.419L69.4209 137.934L71.039 140.428L72.7221 142.901L74.4684 145.35L76.2778 147.775L78.1491 150.172L80.0804 152.542L82.0712 154.88L84.1203 157.187L86.2257 159.46L88.3869 161.699L90.6015 163.9L92.8681 166.064L95.1856 168.188L97.5528 170.271L99.9677 172.311L102.429 174.306L104.934 176.257L107.483 178.16L110.072 180.015L112.7 181.821L115.366 183.577L118.067 185.279L120.802 186.929L123.569 188.524L126.366 190.064L129.191 191.547L132.041 192.973L134.917 194.341L137.813 195.649L140.73 196.897L143.665 198.084L146.616 199.208L149.581 200.271L152.558 201.27L155.544 202.205L158.539 203.076L161.538 203.881L164.542 204.621L167.548 205.296L170.552 205.903L173.554 206.445L176.552 206.919L179.543 207.327L182.525 207.668L185.497 207.94L188.456 208.146L191.401 208.284L194.329 208.354L197.238 208.358L200.127 208.294L202.994 208.163L205.836 207.966L208.652 207.703L211.441 207.373L214.2 206.977L216.928 206.516L219.621 205.991L222.281 205.4L224.904 204.747L227.49 204.03L230.035 203.25L232.539 202.409L235 201.507L237.417 200.544L239.788 199.522L242.112 198.441L244.389 197.302L246.615 196.107L248.79 194.855L250.914 193.549L252.983 192.189L254.998 190.775L256.957 189.31L258.86 187.794L260.705 186.228L262.491 184.614L264.218 182.953L265.884 181.246L267.489 179.493L269.032 177.697L270.512 175.858L271.928 173.978L273.28 172.059L274.568 170.101L275.791 168.105L276.947 166.075L278.037 164.009L279.06 161.909L280.016 159.779L280.905 157.618L281.726 155.428L282.479 153.21L283.164 150.966L283.78 148.697L284.328 146.405L284.807 144.091L285.217 141.756L285.559 139.402L285.832 137.031L286.037 134.643L286.173 132.24L286.24 129.824L286.24 127.396L286.171 124.957L286.034 122.509L285.831 120.054L285.56 117.592L285.223 115.125L284.819 112.655L284.349 110.183L283.813 107.71L283.213 105.237L282.547 102.767L281.818 100.299L281.026 97.8371L280.171 95.381M37.7994 49.2468L36.348 50.9184L34.5613 53.0009L32.8414 55.1369L31.4494 56.8742L29.7914 59.0698L28.4681 60.8605L26.8751 63.1127L25.6235 64.9538L24.0985 67.2611L22.921 69.1477L21.4647 71.5073L20.0813 73.9148L18.9799 75.8457L17.6688 78.3017L16.647 80.2688L15.4107 82.7703L14.4705 84.7693L13.3108 87.3132L12.4545 89.3398L11.3733 91.9242L10.3699 94.5486L9.59947 96.5943L8.6764 99.2537L7.99358 101.316L7.15139 104.007L6.55626 106.081L5.79619 108.8L5.11708 111.554L4.61203 113.626L4.01623 116.401L3.60068 118.474L3.08826 121.268L2.76219 123.337L2.33373 126.147L1.98742 128.984L1.75266 131.028L1.49034 133.875M37.7994 49.2468L36.0205 51.3221L34.3074 53.4495L32.6623 55.6291L31.0858 57.8597L29.5792 60.1394L28.1437 62.4683L26.7805 64.8439L25.4909 67.2655L24.2754 69.732L23.1354 72.2415L22.072 74.7934L21.087 77.3858L20.1798 80.017L19.3517 82.6862L18.6045 85.391L17.9377 88.1303L17.3523 90.9027L16.8491 93.7065L16.4293 96.5397L16.0928 99.4006L15.8408 102.288L15.6735 105.2L15.5907 108.134L15.5932 111.09L15.6815 114.064L15.8555 117.055L16.1154 120.062L16.4623 123.081L16.8951 126.112L17.4143 129.153L18.0198 132.201L18.7112 135.254L19.4878 138.311L20.3508 141.369L21.299 144.427L22.3324 147.481L23.4504 150.53L24.6524 153.573L25.9377 156.607L27.3052 159.63L28.7554 162.639L30.2865 165.634L31.8979 168.611L33.589 171.568L35.3592 174.504L37.2065 177.416L39.1306 180.303L41.1293 183.162L43.2023 185.991L45.3476 188.789L47.5646 191.553L49.8514 194.281L52.2069 196.971L54.6293 199.622L57.1166 202.232L59.6676 204.797L62.2805 207.318L64.9536 209.791L67.6854 212.216L70.473 214.59L73.3158 216.911L76.2113 219.179L79.1571 221.391L82.1513 223.546L85.1921 225.642L88.2776 227.678L91.4048 229.652L94.5725 231.563L97.7775 233.41L101.018 235.19L104.292 236.904L107.597 238.55L110.93 240.126L114.289 241.632L117.672 243.066L121.077 244.428L124.501 245.717L127.941 246.931L131.395 248.071L134.861 249.135L138.337 250.123L141.819 251.034L145.305 251.868L148.793 252.624L152.282 253.301L155.766 253.9L159.246 254.419L162.718 254.86L166.18 255.222L169.63 255.504L173.064 255.708L176.481 255.831L179.879 255.875L183.255 255.84L186.607 255.727L189.933 255.534L193.231 255.264L196.497 254.916L199.731 254.491L202.93 253.987L206.093 253.409L209.216 252.754L212.299 252.024L215.339 251.22L218.334 250.342L221.283 249.392L224.183 248.37L227.033 247.277L229.831 246.113L232.577 244.881L235.267 243.58L237.9 242.213L240.476 240.781L242.991 239.283L245.446 237.722L247.839 236.099L250.167 234.415L252.431 232.672L254.629 230.869L256.76 229.011L258.823 227.097L260.816 225.129L262.739 223.108L264.59 221.036L266.37 218.914L268.076 216.744L269.709 214.527L271.268 212.266L272.752 209.96L274.16 207.613L275.491 205.226L276.747 202.799L277.924 200.336L279.024 197.836L280.047 195.303L280.991 192.738M1.49034 133.875L1.34567 135.903L1.1667 138.755L1.06985 141.628L1.0147 143.616L1 146.489L1.03247 148.45L1.09929 151.319L1.24886 154.203L1.36591 156.107L1.59513 158.982L2.10511 163.707L2.49369 166.576L2.77442 168.371L3.23966 171.221L3.78395 174.076L4.13943 175.791L4.7573 178.62L5.45295 181.451L5.87771 183.079L6.64328 185.878L7.48607 188.675M1.49034 133.875L1.31029 136.744L1.21283 139.636L1.19873 142.547L1.26738 145.475L1.42061 148.42L1.65723 151.379L1.9784 154.35L2.38356 157.332L2.87267 160.322L3.4464 163.319L4.10344 166.32L4.84387 169.323L5.66829 172.327L6.57602 175.329L7.56654 178.328L8.63978 181.322L9.79517 184.307L11.0315 187.284L12.348 190.249L13.7455 193.2L15.2215 196.135L16.7765 199.052L18.4087 201.95L20.1182 204.826L21.9037 207.678L23.7634 210.504L25.696 213.303L27.7015 216.071L29.7775 218.808L31.9234 221.511L34.1379 224.177L36.4193 226.807L38.7662 229.397L41.1769 231.946L43.6494 234.451L46.1827 236.912L48.7754 239.326L51.4246 241.691L54.1301 244.006L56.8883 246.27L59.6986 248.479L62.5585 250.634L65.4663 252.732L68.4194 254.772L71.4161 256.753L74.4544 258.673L77.5325 260.53L80.6475 262.323L83.798 264.052L86.9809 265.715L90.1946 267.31L93.4364 268.837L96.7046 270.296L99.996 271.683L103.31 272.999L106.641 274.243L109.991 275.414L113.354 276.512L116.729 277.535L120.114 278.483L123.507 279.356L126.904 280.153L130.304 280.873L133.704 281.516L137.101 282.082L140.495 282.57L143.881 282.981L147.258 283.314L150.624 283.57L153.976 283.747L157.312 283.846L160.629 283.868L163.926 283.812L167.201 283.679L170.451 283.468L173.673 283.181L176.867 282.818L180.029 282.378L183.157 281.863L186.251 281.274L189.308 280.609L192.325 279.872L195.301 279.062L198.234 278.18L201.123 277.226L203.965 276.202L206.759 275.108L209.503 273.946L212.196 272.716L214.835 271.419L217.42 270.057L219.949 268.631L222.42 267.142L224.833 265.591M7.48607 188.675L7.97521 190.207L8.88358 192.968L9.86793 195.722L10.4135 197.151L11.4591 199.863L12.5777 202.565L13.7693 205.256L14.3491 206.54L15.5952 209.181L16.9118 211.808L18.8983 215.547L20.3326 218.101L21.8343 220.635L23.4022 223.148L24.0078 224.115L25.6155 226.566L27.2864 228.993L29.0191 231.392L29.6149 232.191L31.3802 234.524L33.2042 236.828L35.086 239.101L37.0247 241.34L39.018 243.546L39.5218 244.096L41.5346 246.23L43.599 248.326L45.7136 250.384L47.8773 252.403L50.0888 254.381L52.3462 256.316L54.6484 258.207L54.9433 258.442L57.246 260.256L59.5893 262.023L61.9718 263.744L64.3917 265.417L66.8477 267.041L69.3375 268.614L71.8597 270.137L74.4125 271.606L76.9942 273.022L79.6035 274.384L82.2379 275.691L84.8962 276.941L87.576 278.135L90.2753 279.271L90.6271 279.416L93.3945 280.514L96.1779 281.55L98.9765 282.526L101.787 283.44L104.609 284.292L107.439 285.081L110.277 285.807L111.004 285.983L113.895 286.657L116.789 287.266L119.684 287.809L122.578 288.287L125.469 288.699L126.458 288.835L129.39 289.186L132.317 289.47L135.234 289.688L136.374 289.75L139.324 289.902L142.262 289.985L145.185 290L146.463 289.978L149.411 289.924L152.339 289.801L155.247 289.609L156.65 289.495L159.573 289.231L162.471 288.898L165.341 288.496L166.855 288.281L169.733 287.804L172.578 287.258L174.154 286.944M7.48607 188.675L8.40611 191.469L9.40213 194.256L10.4742 197.036L11.621 199.807L12.8426 202.566L14.1383 205.311L15.5076 208.042L16.9492 210.755L18.4626 213.45L20.0476 216.124L21.7019 218.774L23.4255 221.401L25.2171 224.001L27.0749 226.573L28.9989 229.115L30.9873 231.625L33.0388 234.102L35.1528 236.543L37.3269 238.948L39.5598 241.313L41.851 243.638L44.1973 245.921L46.5988 248.16L49.0529 250.354L51.5586 252.501L54.114 254.6L56.7171 256.649L59.3662 258.646L62.0595 260.591L64.795 262.483L67.571 264.318L70.3862 266.097L73.2376 267.817L76.1233 269.479L79.0427 271.08L81.9915 272.62L84.9698 274.097L87.9738 275.511L91.0023 276.861L94.0535 278.145L97.1249 279.363L100.213 280.514L103.319 281.597L106.437 282.612L109.567 283.558L112.707 284.435L115.854 285.241L119.005 285.977L122.16 286.641L125.314 287.234L128.468 287.755L131.618 288.205L134.762 288.583L137.898 288.888L141.024 289.121L144.138 289.282L147.237 289.37L150.32 289.386L153.384 289.33L156.429 289.202L159.451 289.003L162.448 288.732L165.419 288.39L168.362 287.978L171.274 287.496L174.154 286.944M174.154 286.944L177 286.323L179.811 285.633L181.438 285.216L184.243 284.451L187.008 283.617L188.678 283.097L191.429 282.187L194.137 281.21L195.841 280.586L198.529 279.533L200.232 278.814L202.897 277.685L205.512 276.489L207.231 275.669L209.816 274.399L212.348 273.064L214.075 272.142L216.571 270.734L218.28 269.723L220.736 268.243L223.133 266.7L224.833 265.591M224.833 265.591L227.185 263.978L228.855 262.783L231.158 261.101L233.398 259.361L235.045 258.073L237.231 256.267L238.838 254.899L240.967 253.03L242.53 251.584L244.599 249.651L246.599 247.666L248.12 246.139L250.056 244.096L251.525 242.498L253.393 240.399L254.804 238.733L256.604 236.58L258.329 234.378L259.683 232.646L261.337 230.396L262.626 228.604L264.205 226.307L265.426 224.459L266.93 222.12L268.081 220.219L269.506 217.839L270.855 215.419L271.931 213.474L273.201 211.017L274.201 209.03L275.39 206.541L276.312 204.515L277.419 201.997L278.261 199.937L279.288 197.394L280.235 194.819L280.991 192.738M280.991 192.738L281.856 190.142L282.528 188.038L283.312 185.424L283.897 183.3L284.599 180.673L285.221 178.021L285.717 175.897L286.258 173.236L286.667 171.103L287.127 168.437L287.448 166.3L287.828 163.632L288.131 160.945L288.361 158.829L288.586 156.146L288.727 154.036L288.874 151.36L288.946 148.669L288.999 146.595L288.995 143.916L288.96 141.86L288.882 139.196L288.731 136.521L288.611 134.515L288.388 131.861L288.183 129.883L287.892 127.252L287.53 124.616L287.245 122.702L286.817 120.093L286.32 117.482L285.958 115.639L285.4 113.061L284.773 110.482L284.339 108.718L283.655 106.176L282.904 103.637L282.404 101.958L281.6 99.4595L280.732 96.9672L280.171 95.381M74.1948 19.8234L71.9025 21.1811L69.6591 22.5977L67.4654 24.0727L65.3232 25.6048L63.2337 27.194L61.1988 28.8404L59.2202 30.5415L57.298 32.2978L55.4341 34.1082L53.6302 35.9715L51.887 37.8869L50.2057 39.8539L48.5882 41.8708L47.0356 43.9367L45.5487 46.0512L44.1291 48.2124L42.777 50.4203L41.4947 52.6723L40.2823 54.9681L39.141 57.3062L38.0721 59.6854L37.076 62.1046L36.1548 64.5619L35.3083 67.056L34.5373 69.5864L33.8428 72.1506L33.2256 74.7473L32.6856 77.3754L32.2247 80.0329L31.8422 82.7187L31.54 85.431L31.3181 88.1677L31.1765 90.9279L31.1153 93.7095L31.1355 96.5108L31.2372 99.3299L31.4205 102.165L31.6859 105.015L32.0328 107.878L32.4625 110.75L32.9737 113.633L33.5664 116.521L34.2412 119.415L34.997 122.313L35.8342 125.211L36.7524 128.109L37.7515 131.004L38.8309 133.895L39.9893 136.779L41.2275 139.656L42.5435 142.521L43.9373 145.374L45.4077 148.213L46.9541 151.035L48.5766 153.84L50.2732 156.623L52.0433 159.385L53.8852 162.123L55.7982 164.834L57.781 167.518L59.8325 170.172L61.9521 172.794L64.1372 175.383L66.3873 177.935L68.7005 180.451L71.075 182.927L73.5096 185.363L76.003 187.756L78.5528 190.106L81.1578 192.408L83.8161 194.663L86.5259 196.869L89.2853 199.024L92.0926 201.127L94.9452 203.176L97.8419 205.17L100.78 207.107L103.759 208.985L106.774 210.804L109.826 212.563L112.911 214.259L116.026 215.893L119.172 217.462L122.344 218.967L125.54 220.404L128.759 221.775L131.998 223.077L135.255 224.31L138.527 225.473L141.813 226.566L145.11 227.588L148.415 228.537L151.726 229.414L155.042 230.218L158.36 230.949L161.676 231.605L164.99 232.188L168.299 232.695L171.6 233.129L174.892 233.488L178.171 233.771L181.437 233.98L184.686 234.113L187.916 234.171L191.126 234.155L194.314 234.064L197.476 233.899L200.611 233.66L203.717 233.347L206.792 232.96L209.834 232.502L212.842 231.97L215.812 231.366L218.743 230.692L221.633 229.947L224.482 229.132L227.287 228.249L230.045 227.296L232.755 226.277L235.417 225.191L238.028 224.039L240.587 222.822L243.091 221.542L245.541 220.2L247.935 218.796L250.269 217.332L252.546 215.808L254.761 214.226L256.915 212.587L259.005 210.893L261.033 209.144L262.995 207.343L264.892 205.489L266.722 203.586L268.483 201.633L270.176 199.632L271.8 197.586L273.354 195.495L274.836 193.36L276.248 191.184L277.588 188.967L278.855 186.711L280.049 184.419L281.169 182.09L282.215 179.727L283.187 177.331L284.085 174.904L284.908 172.448L285.656 169.963L286.329 167.451L286.926 164.915L287.448 162.355L287.894 159.774L288.266 157.172L288.562 154.552L288.783 151.914L288.929 149.262L289 146.595M13.3102 87.3131L12.2277 89.9L11.2237 92.5269L10.2982 95.1936L9.45297 97.8979L8.68804 100.639L8.00458 103.414L7.40268 106.223L6.88413 109.062L6.44897 111.931L6.09836 114.829L5.83233 117.753L5.65153 120.701L5.55591 123.671L5.54674 126.663L5.62336 129.673L5.78639 132.7L6.03645 135.743L6.37359 138.799L6.79771 141.866L7.30893 144.942L7.90713 148.025L8.59178 151.114L9.36285 154.205L10.2204 157.298L11.1643 160.39L12.1934 163.478L13.3083 166.562L14.5085 169.638L15.7919 172.704L17.1588 175.759L18.609 178.801L20.1407 181.827L21.754 184.835L23.4475 187.823L25.2207 190.789L27.0718 193.731L29.0007 196.646L31.0044 199.533L33.0835 202.39L35.2361 205.215L37.4604 208.005L39.7559 210.758L42.1206 213.474L44.5527 216.148L47.0504 218.781L49.6131 221.369L52.2383 223.911L54.9242 226.406L57.669 228.851L60.4713 231.244L63.3288 233.584L66.2396 235.869L69.2019 238.097L72.2127 240.268L75.2712 242.379L78.3745 244.428L81.5201 246.415L84.7068 248.337L87.932 250.194L91.1928 251.985L94.488 253.708L97.8138 255.362L101.169 256.945L104.551 258.457L107.957 259.896L111.385 261.261L114.832 262.553L118.297 263.769L121.775 264.909L125.267 265.973L128.767 266.961L132.275 267.869L135.787 268.7L139.302 269.451L142.816 270.123L146.328 270.715L149.835 271.228L153.334 271.661L156.823 272.013L160.3 272.285L163.762 272.477L167.207 272.589L170.632 272.62L174.037 272.571L177.417 272.443L180.771 272.234L184.096 271.948L187.391 271.582L190.653 271.138L193.88 270.616L197.071 270.017L200.222 269.342L203.333 268.59L206.4 267.764L209.423 266.863L212.399 265.889L215.326 264.842L218.204 263.724L221.029 262.535L223.8 261.276L226.517 259.948L229.176 258.554L231.777 257.093L234.319 255.566L236.799 253.976L239.216 252.323L241.569 250.609L243.857 248.834L246.079 247.001L248.234 245.111L250.319 243.165L252.336 241.164L254.28 239.11L256.154 237.005L257.955 234.85L259.682 232.646M223.041 40.3188L221.98 39.4139L220.9 38.5275L219.803 37.6588L218.688 36.8099L217.555 35.9793L216.408 35.169L215.244 34.379L214.065 33.6093L212.873 32.8604L211.666 32.1337L210.447 31.429L209.215 30.7459L207.972 30.0861L206.719 29.4491L205.455 28.836L204.182 28.2462L202.9 27.6804L201.611 27.1398L200.313 26.6232L199.01 26.1324L197.701 25.6667L196.387 25.2262L195.068 24.8116L193.745 24.4233L192.421 24.0615L191.094 23.7267L189.766 23.4183L188.437 23.1369L187.109 22.8826L185.781 22.6559L184.455 22.4563L183.132 22.2843L181.812 22.1399L180.495 22.0238L179.184 21.9353L177.878 21.8751L176.578 21.8432L175.286 21.8389L174 21.8628L172.724 21.9151L171.457 21.9955L170.199 22.1037L168.953 22.2406L167.718 22.4053L166.495 22.5982L165.284 22.8187L164.088 23.0669L162.906 23.3427L161.738 23.6468L160.587 23.9779L159.452 24.3367L158.333 24.7225L157.233 25.1353L156.151 25.5746L155.088 26.0402L154.044 26.5323L153.021 27.0508L152.02 27.5944L151.039 28.1645L150.081 28.7592L149.146 29.3784L148.234 30.0228L147.346 30.6912L146.483 31.3836L145.644 32.0992L144.831 32.8383L144.045 33.5994L143.285 34.3833L142.552 35.1893L141.848 36.0162L141.17 36.8639L140.522 37.7325L139.902 38.6209L139.312 39.5288L138.752 40.4558L138.222 41.4013L137.722 42.3645L137.254 43.345L136.817 44.3426L136.411 45.3557L136.037 46.3846L135.695 47.429L135.385 48.4875L135.109 49.5601L134.865 50.6449L134.655 51.7433L134.477 52.8528L134.333 53.9733L134.222 55.1049L134.145 56.2463L134.102 57.3963L134.093 58.5549L134.118 59.7215L134.177 60.8949L134.269 62.0744L134.395 63.26L134.556 64.45L134.75 65.6442L134.978 66.8415L135.241 68.0419L135.536 69.2435L135.865 70.4463L136.227 71.6498L136.622 72.8532L137.049 74.0548L137.51 75.2546L138.004 76.4519L138.528 77.6455L139.086 78.8355L139.674 80.0199L140.294 81.1987L140.944 82.3715L141.625 83.5362L142.336 84.6936L143.076 85.8424L143.846 86.9813L144.644 88.1098L145.471 89.2279L146.325 90.3343L147.206 91.4284L148.115 92.509L149.048 93.5761L150.008 94.629L150.993 95.6666L152.001 96.6882L153.034 97.6932L154.088 98.6817L155.166 99.6517L156.266 100.604L157.385 101.536L158.526 102.45L159.686 103.343L160.864 104.215L162.061 105.066L163.275 105.895L164.505 106.702L165.751 107.485L167.012 108.245L168.287 108.981L169.574 109.693L170.875 110.38L172.187 111.041L173.51 111.677L174.842 112.286L176.184 112.869L177.534 113.425L178.89 113.954L180.254 114.456L181.623 114.929L182.996 115.374L184.374 115.79L185.754 116.179L187.136 116.538L188.52 116.867L189.903 117.168L191.286 117.439L192.667 117.68L194.046 117.891L195.421 118.073L196.792 118.225L198.159 118.346L199.519 118.438L200.873 118.498L202.219 118.53L203.556 118.53L204.884 118.501L206.202 118.441L207.509 118.352L208.804 118.233L210.087 118.084L211.356 117.904L212.61 117.696L213.851 117.458L215.075 117.191L216.283 116.895L217.473 116.571L218.647 116.217L219.801 115.836L220.935 115.426L222.05 114.989L223.144 114.524L224.217 114.032L225.267 113.514L226.296 112.97L227.301 112.399L228.282 111.803L229.239 111.181L230.172 110.535L231.078 109.864L231.959 109.17L232.813 108.452L233.64 107.712L234.44 106.949L235.212 106.163L235.956 105.357L236.671 104.53L237.358 103.682L238.014 102.814L238.641 101.928L239.238 101.022L239.804 100.099L240.34 99.1578L240.845 98.1994L241.318 97.2251L241.76 96.2355L242.17 95.2304L242.549 94.2107L242.896 93.1774L243.209 92.1306L243.491 91.0715L243.74 90.0007L243.957 88.9183L244.141 87.8254L244.293 86.7227L244.412 85.6102L244.498 84.4897L244.551 83.3612L244.571 82.2253L244.559 81.0833L244.514 79.9351L244.437 78.7814L244.327 77.6234L244.185 76.4617L244.01 75.297L243.804 74.1292L243.565 72.9601L243.295 71.7898L242.993 70.6189L242.66 69.4487L242.296 68.279L241.901 67.1106L241.475 65.9452L241.019 64.7823L240.533 63.6231L240.018 62.4681L239.473 61.3181L238.899 60.1737L238.296 59.0359L237.665 57.9044L237.006 56.7808L236.32 55.6645L235.606 54.5582L234.867 53.4604L234.1 52.373L233.308 51.2961L232.491 50.2303L231.649 49.1767L230.783 48.1348L229.893 47.1065L228.979 46.0916L228.043 45.0909L227.084 44.1049L226.104 43.1343L225.103 42.179L224.082 41.2403L223.041 40.3188ZM209.967 48.3728L210.567 48.847L211.182 49.3053L211.783 49.7691L212.339 50.26L212.833 50.7938L213.286 51.3584L213.731 51.934L214.199 52.5022L214.711 53.049L215.242 53.5847L215.758 54.1228L216.22 54.6781L216.608 55.2618L216.945 55.8656L217.27 56.4793L217.623 57.09L218.027 57.6908L218.455 58.2836L218.865 58.8764L219.217 59.476L219.482 60.0872L219.69 60.7089L219.885 61.3368L220.108 61.9677L220.389 62.5992L220.696 63.2282L220.985 63.8543L221.212 64.4753L221.345 65.0915L221.417 65.707L221.472 66.3256L221.557 66.9535L221.703 67.5918L221.878 68.2337L222.034 68.8696L222.126 69.4894L222.122 70.0871L222.053 70.6726L221.967 71.2592L221.91 71.8588L221.915 72.4805L221.949 73.1114L221.966 73.7331L221.92 74.3284L221.777 74.885L221.57 75.4182L221.344 75.949L221.147 76.4982L221.009 77.0793L220.9 77.6752L220.776 78.2594L220.592 78.8068L220.316 79.3007L219.977 79.7608L219.62 80.2148L219.288 80.6921L219.012 81.2106L218.765 81.7481L218.503 82.2728L218.187 82.7513L217.787 83.1629L217.329 83.5309L216.853 83.8903L216.399 84.2767L215.995 84.7122L215.616 85.1705L215.226 85.6147L214.789 86.0054L214.279 86.3181L213.72 86.5791L213.144 86.8292L212.585 87.1081L212.067 87.4435L211.571 87.8053L211.067 88.1512L210.525 88.4381L209.925 88.639L209.285 88.7821L208.63 88.9117L207.988 89.0727L207.375 89.2932L206.78 89.5432L206.181 89.7773L205.555 89.9493L204.888 90.0292L204.192 90.0476L203.484 90.0513L202.782 90.0863L202.099 90.184L201.428 90.3124L200.756 90.4248L200.071 90.4746L199.363 90.4297L198.638 90.3222L197.905 90.1981L197.171 90.106L196.444 90.0753L195.723 90.0765L195.004 90.063L194.286 89.9874L193.565 89.8197L192.841 89.5893L192.111 89.3424L191.374 89.1249L190.632 88.9676L189.889 88.8417L189.153 88.7023L188.43 88.5044L187.724 88.2194L187.029 87.8748L186.332 87.5135L185.622 87.18L184.894 86.9023L184.158 86.6535L183.433 86.3936L182.734 86.0816L182.072 85.6902L181.433 85.2442L180.797 84.7835L180.143 84.3461L179.457 83.9585L178.758 83.5979L178.073 83.228L177.425 82.814L176.834 82.3317L176.278 81.8028L175.727 81.2598L175.154 80.7364L174.538 80.2547L173.904 79.7958L173.285 79.3308L172.716 78.8313L172.218 78.2778L171.766 77.6863L171.324 77.083L170.855 76.4939L170.333 75.9373L169.788 75.3998L169.26 74.8592L168.79 74.294L168.405 73.6907L168.077 73.0598L167.761 72.4203L167.413 71.7894L167.006 71.18L166.571 70.5847L166.155 69.9901L165.803 69.3825L165.547 68.7534L165.353 68.1084L165.174 67.4572L164.963 66.8091L164.685 66.1721L164.378 65.543L164.089 64.9182L163.868 64.2929L163.75 63.6626L163.698 63.0286L163.664 62.3909L163.595 61.7514L163.459 61.1113L163.289 60.4742L163.138 59.844L163.057 59.2247L163.08 58.6184L163.172 58.0194L163.282 57.4205L163.358 56.8141L163.367 56.1961L163.341 55.5763L163.333 54.9656L163.393 54.3765L163.556 53.8175L163.787 53.2763L164.038 52.7387L164.256 52.1889L164.407 51.6176L164.525 51.0383L164.659 50.4707L164.857 49.9356L165.153 49.4441L165.514 48.9816L165.894 48.5251L166.244 48.0527L166.532 47.549L166.788 47.0329L167.058 46.531L167.385 46.0691L167.801 45.6642L168.278 45.2969L168.771 44.9387L169.239 44.5603L169.651 44.1438L170.035 43.7107L170.429 43.2923L170.872 42.9213L171.393 42.6178L171.965 42.3592L172.554 42.1116L173.121 41.8419L173.642 41.5274L174.136 41.1932L174.639 40.8744L175.181 40.6078L175.784 40.4161L176.431 40.2748L177.091 40.1464L177.736 39.9941L178.344 39.7938L178.931 39.5702L179.523 39.3632L180.142 39.2102L180.806 39.1371L181.503 39.1174L182.209 39.1125L182.906 39.0824L183.579 39.0025L184.236 38.8987L184.893 38.8097L185.566 38.7759L186.266 38.8232L186.985 38.9251L187.712 39.0425L188.436 39.1359L189.146 39.1789L189.848 39.1979L190.546 39.2305L191.248 39.3171L191.956 39.4823L192.672 39.701L193.393 39.9357L194.116 40.1483L194.839 40.3129L195.558 40.453L196.271 40.6065L196.974 40.8093L197.666 41.0857L198.352 41.4131L199.039 41.7559L199.735 42.0791L200.443 42.3586L201.154 42.6154L201.854 42.8832L202.534 43.1947L203.183 43.5725L203.813 43.9957L204.442 44.4338L205.085 44.8552L205.751 45.2391L206.427 45.6034L207.09 45.9757L207.72 46.3848L208.302 46.8493L208.854 47.3524L209.401 47.8684L209.967 48.3728ZM232.655 35.7318L231.138 34.4406L229.594 33.1744L228.025 31.9354L226.431 30.7227L224.814 29.5371L223.173 28.3803L221.511 27.2518L219.828 26.1534L218.124 25.0845L216.401 24.0463L214.659 23.0394L212.901 22.0638L211.126 21.1209L209.335 20.2104L207.53 19.3338L205.712 18.4903L203.882 17.6813L202.039 16.9072L200.186 16.1676L198.324 15.4642L196.453 14.7964L194.575 14.1655L192.691 13.5709L190.801 13.0131L188.907 12.4927L187.009 12.0105L185.11 11.5663L183.208 11.1603L181.307 10.7923L179.407 10.4637L177.509 10.1737L175.614 9.92305L173.722 9.71232L171.836 9.54093L169.956 9.40886L168.083 9.31733L166.218 9.2651L164.363 9.25282L162.518 9.28107L160.685 9.34928L158.864 9.45799L157.056 9.60666L155.263 9.79526L153.486 10.0244L151.726 10.2935L149.982 10.6019L148.258 10.9508L146.553 11.339L144.869 11.7672L143.206 12.2347L141.567 12.7415L139.95 13.2877L138.359 13.8719L136.793 14.4948L135.254 15.1564L133.741 15.8555L132.258 16.5921L130.804 17.3661L129.38 18.1777L127.987 19.0248L126.626 19.9088L125.298 20.8278L124.004 21.7825L122.744 22.7716L121.52 23.795L120.332 24.8516L119.181 25.942L118.067 27.065L116.993 28.2193L115.957 29.4056L114.961 30.6226L114.006 31.869L113.092 33.1456L112.221 34.4504L111.391 35.7835L110.605 37.1436L109.863 38.5301L109.165 39.9424L108.511 41.3793L107.903 42.8408L107.341 44.325L106.825 45.8319L106.356 47.3603L105.934 48.9096L105.559 50.478L105.232 52.0654L104.953 53.6712L104.723 55.293L104.541 56.9314L104.408 58.5846L104.324 60.2512L104.289 61.9314L104.303 63.6232L104.368 65.3261L104.481 67.0382L104.644 68.7595L104.856 70.4882L105.119 72.2237L105.43 73.9647L105.79 75.7099L106.2 77.4589L106.659 79.2097L107.167 80.9618L107.723 82.7132L108.328 84.464L108.98 86.2124L109.681 87.957L110.428 89.6974L111.223 91.4322L112.064 93.1603L112.95 94.8798L113.882 96.5907L114.86 98.2917L115.881 99.9805L116.946 101.658L118.055 103.321L119.206 104.969L120.398 106.602L121.632 108.218L122.906 109.816L124.219 111.395L125.571 112.954L126.961 114.491L128.387 116.007L129.85 117.5L131.347 118.968L132.878 120.412L134.443 121.829L136.04 123.219L137.668 124.581L139.326 125.914L141.012 127.218L142.727 128.49L144.468 129.731L146.235 130.94L148.026 132.117L149.84 133.258L151.676 134.365L153.533 135.437L155.409 136.473L157.304 137.471L159.216 138.433L161.143 139.356L163.085 140.241L165.04 141.086L167.008 141.891L168.985 142.656L170.972 143.38L172.968 144.063L174.969 144.705L176.976 145.304L178.987 145.861L181 146.375L183.015 146.846L185.03 147.273L187.044 147.657L189.055 147.998L191.061 148.294L193.063 148.546L195.059 148.754L197.046 148.918L199.024 149.036L200.992 149.111L202.948 149.142L204.891 149.128L206.821 149.07L208.734 148.968L210.631 148.821L212.51 148.632L214.371 148.398L216.21 148.12L218.029 147.8L219.825 147.437L221.598 147.031L223.347 146.583L225.069 146.093L226.764 145.561L228.432 144.989L230.071 144.376L231.681 143.722L233.259 143.029L234.806 142.297L236.321 141.526L237.801 140.718L239.248 139.871L240.66 138.989L242.035 138.069L243.374 137.114L244.675 136.125L245.938 135.101L247.163 134.044L248.348 132.953L249.492 131.832L250.596 130.679L251.658 129.495L252.678 128.282L253.656 127.039L254.591 125.769L255.483 124.472L256.33 123.148L257.134 121.799L257.893 120.425L258.606 119.027L259.275 117.607L259.898 116.165L260.475 114.701L261.005 113.218L261.49 111.716L261.928 110.195L262.319 108.657L262.663 107.102L262.961 105.533L263.211 103.948L263.415 102.351L263.572 100.741L263.681 99.1198L263.744 97.4876L263.76 95.8461L263.729 94.1954L263.651 92.5374L263.526 90.8732L263.355 89.2029L263.139 87.5282L262.876 85.8493L262.568 84.1679L262.213 82.4847L261.814 80.8008L261.37 79.1164L260.881 77.4337L260.348 75.7529L259.772 74.0752L259.152 72.4012L258.489 70.7321L257.784 69.0685L257.036 67.4123L256.247 65.7635L255.417 64.1226L254.546 62.4922L253.636 60.8717L252.686 59.2621L251.697 57.6649L250.67 56.0806L249.605 54.5104L248.504 52.9549L247.366 51.4148L246.192 49.8913L244.984 48.3844L243.741 46.8959L242.465 45.4264L241.155 43.9766L239.814 42.5471L238.441 41.1385L237.038 39.7526L235.605 38.3888L234.144 37.0483L232.655 35.7318ZM238.545 35.5691L236.646 33.9528L234.713 32.3691L232.749 30.8185L230.754 29.3012L228.73 27.8188L226.677 26.3708L224.597 24.9597L222.491 23.5849L220.359 22.2481L218.204 20.9489L216.025 19.6895L213.825 18.4689L211.605 17.2887L209.365 16.1498L207.106 15.052L204.831 13.996L202.54 12.983L200.235 12.0136L197.916 11.0878L195.585 10.2062L193.243 9.36892L190.892 8.57768L188.532 7.83129L186.166 7.13157L183.793 6.47856L181.415 5.87282L179.035 5.31381L176.652 4.80329L174.269 4.3401L171.886 3.92544L169.505 3.5593L167.127 3.24232L164.754 2.97447L162.386 2.75638L160.026 2.58745L157.673 2.46827L155.331 2.39946L152.999 2.38042L150.679 2.41114L148.373 2.49223L146.081 2.62368L143.806 2.80554L141.549 3.03774L139.31 3.31973L137.09 3.65268L134.892 4.03539L132.716 4.46788L130.565 4.95012L128.438 5.48274L126.337 6.0645L124.265 6.69603L122.221 7.37668L120.206 8.10588L118.223 8.88361L116.273 9.70987L114.356 10.584L112.474 11.5055L110.628 12.4743L108.819 13.4898L107.048 14.5513L105.317 15.659L103.626 16.8114L101.977 18.0087L100.37 19.2503L98.808 20.5354L97.2898 21.863L95.8181 23.2335L94.3931 24.6452L93.0158 26.0981L91.687 27.5903L90.4078 29.1224L89.1794 30.6926L88.0026 32.3009L86.8785 33.946L85.8071 35.6268L84.7902 37.3432L83.8279 39.0934L82.9208 40.8762L82.07 42.6921L81.2756 44.5381L80.5395 46.4149L79.8616 48.3205L79.2425 50.2544L78.6829 52.2153L78.1828 54.2014L77.7433 56.212L77.3645 58.2461L77.0464 60.3022L76.7908 62.3792L76.5965 64.4759L76.4647 66.591L76.3954 68.7233L76.3887 70.8715L76.4451 73.034L76.564 75.2099L76.7461 77.3969L76.9912 79.5949L77.2995 81.8021L77.6716 84.0161L78.1062 86.2369L78.6038 88.4626L79.1641 90.6913L79.7868 92.9226L80.4715 95.1538L81.218 97.3838L82.0265 99.6119L82.8963 101.836L83.8267 104.054L84.8178 106.266L85.8677 108.469L86.9772 110.663L88.1454 112.845L89.3713 115.015L90.6542 117.17L91.994 119.309L93.3891 121.433L94.8387 123.537L96.3422 125.62L97.8991 127.683L99.5074 129.723L101.167 131.738L102.876 133.729L104.635 135.691L106.441 137.626L108.293 139.531L110.191 141.405L112.133 143.247L114.117 145.056L116.144 146.829L118.21 148.566L120.315 150.266L122.458 151.928L124.636 153.55L126.849 155.132L129.095 156.672L131.373 158.169L133.68 159.623L136.016 161.032L138.378 162.394L140.766 163.711L143.177 164.979L145.611 166.199L148.064 167.371L150.536 168.492L153.025 169.562L155.53 170.581L158.048 171.547L160.577 172.462L163.117 173.322L165.665 174.129L168.22 174.882L170.78 175.58L173.343 176.223L175.907 176.81L178.471 177.341L181.033 177.816L183.592 178.234L186.145 178.597L188.691 178.902L191.228 179.15L193.755 179.342L196.269 179.476L198.77 179.553L201.255 179.574L203.724 179.537L206.174 179.443L208.603 179.294L211.011 179.088L213.395 178.825L215.755 178.507L218.088 178.133L220.394 177.704L222.67 177.221L224.915 176.683L227.129 176.092L229.309 175.447L231.455 174.749L233.564 173.999L235.636 173.198L237.67 172.345L239.664 171.442L241.617 170.49L243.528 169.49L245.396 168.441L247.219 167.344L248.998 166.202L250.73 165.014L252.415 163.781L254.052 162.504L255.64 161.185L257.178 159.823L258.666 158.421L260.101 156.979L261.486 155.497L262.817 153.978L264.094 152.422L265.317 150.83L266.486 149.203L267.6 147.543L268.657 145.85L269.658 144.126L270.603 142.372L271.49 140.588L272.32 138.775L273.092 136.937L273.806 135.073L274.462 133.184L275.059 131.272L275.598 129.338L276.077 127.383L276.498 125.409L276.859 123.416L277.161 121.405L277.404 119.379L277.588 117.338L277.713 115.284L277.779 113.217L277.786 111.139L277.734 109.051L277.624 106.954L277.456 104.85L277.229 102.74L276.945 100.625L276.604 98.5055L276.205 96.3842L275.75 94.2612L275.237 92.1381L274.67 90.0156L274.046 87.8956L273.368 85.7786L272.635 83.6666L271.848 81.5601L271.009 79.4604L270.115 77.3692L269.17 75.2867L268.173 73.2146L267.125 71.1535L266.027 69.1054L264.879 67.0708L263.682 65.0503L262.437 63.0464L261.145 61.059L259.806 59.0895L258.421 57.1391L256.991 55.2082L255.517 53.2983L254 51.4105L252.44 49.5461L250.839 47.7049L249.197 45.889L247.515 44.0995L245.795 42.3358L244.036 40.6003L242.241 38.8937L240.41 37.216L238.545 35.5691Z" stroke="url(#paint0_angular_794_39955)" stroke-width="1.875" stroke-linecap="round" stroke-linejoin="round"/>
</g>
<defs>
<radialGradient id="paint0_angular_794_39955" cx="0" cy="0" r="1" gradientUnits="userSpaceOnUse" gradientTransform="translate(145 145.5) rotate(90) scale(144.5 144)">
<stop offset="0.0993526" stop-color="#16BAB2"/>
<stop offset="0.427081" stop-color="#79FFF7"/>
<stop offset="0.718753" stop-color="#9F53FF"/>
<stop offset="1" stop-color="#FF98E2"/>
</radialGradient>
</defs>
</svg>
