<svg width="252" height="252" viewBox="0 0 252 252" fill="none" xmlns="http://www.w3.org/2000/svg">
<mask id="path-1-inside-1_833_635" fill="white">
<path d="M218.314 40.2363C217.253 39.1338 216.245 37.9998 215.152 36.9078C214.07 35.8264 212.936 34.7869 211.791 33.7369C188.536 11.9793 157.85 -0.0871149 125.997 0.000473522C109.435 -0.0440793 93.0295 3.1939 77.7281 9.52712C62.4266 15.8603 48.5333 25.1631 36.8518 36.8973C-11.2188 84.9452 -12.2483 162.435 33.6898 211.764C34.7298 212.898 35.7593 214.011 36.8413 215.124C37.9338 216.205 39.0473 217.224 40.1714 218.274C63.4457 240.019 94.1376 252.08 125.997 252C159.676 252 191.338 238.906 215.152 215.124C263.223 167.076 264.242 89.5862 218.314 40.2363ZM43.3544 43.3968C54.183 32.5165 67.0624 23.89 81.2477 18.0163C95.4329 12.1427 110.643 9.1385 125.997 9.17744C155.673 9.17744 183.669 20.1814 205.309 40.2363L194.794 50.7573C176.033 33.5332 151.47 24.0037 125.997 24.0664C112.598 24.0298 99.3245 26.6503 86.9456 31.7761C74.5667 36.902 63.328 44.4313 53.8803 53.9283C44.382 63.3711 36.8517 74.6031 31.7253 86.9742C26.5989 99.3453 23.9782 112.61 24.0148 126C24.0148 151.704 33.4692 175.906 50.7183 194.764L40.1819 205.275C-2.17407 159.505 -1.12358 87.8537 43.3544 43.3968ZM188.302 57.2358V57.2568L177.639 67.9037C163.452 55.1819 145.056 48.1578 125.997 48.1848C115.771 48.1561 105.64 50.1562 96.1933 54.0692C86.7461 57.9822 78.1698 63.7302 70.9614 70.9802C63.7071 78.1874 57.9552 86.7613 54.0387 96.2055C50.1221 105.65 48.1188 115.777 48.1446 126C48.1165 145.04 55.1404 163.416 67.8624 177.586L57.2104 188.254C41.705 171.231 33.1411 149.021 33.2066 126C33.1727 113.816 35.5583 101.746 40.225 90.4905C44.8918 79.2346 51.747 69.0163 60.3934 60.4278C68.9864 51.786 79.2095 44.9343 90.4707 40.2698C101.732 35.6053 113.807 33.2206 125.997 33.2539C149.244 33.2539 171.179 41.7483 188.302 57.2358ZM194.668 126C194.668 144.322 187.514 161.563 174.54 174.531C161.567 187.498 144.338 194.649 125.997 194.649C109.381 194.661 93.3335 188.608 80.8675 177.628L80.857 177.586C79.7015 176.599 78.5459 175.612 77.4534 174.531C76.3862 173.428 75.3596 172.286 74.3755 171.108C63.3766 158.657 57.3224 142.61 57.3574 126C57.3574 107.667 64.4903 90.4367 77.4639 77.4797C83.8212 71.0873 91.3844 66.0195 99.7153 62.5697C108.046 59.12 116.979 57.3569 125.997 57.3828C142.794 57.3828 158.615 63.4308 171.116 74.3927C172.282 75.4007 173.469 76.3877 174.54 77.4902C175.633 78.5822 176.641 79.7372 177.639 80.8922C188.632 93.3477 194.688 109.391 194.668 126ZM74.3545 184.107C88.5389 196.828 106.94 203.855 125.997 203.836C136.226 203.865 146.358 201.862 155.806 197.943C165.254 194.024 173.829 188.268 181.032 181.009C188.291 173.807 194.046 165.236 197.965 155.793C201.884 146.35 203.887 136.223 203.859 126C203.874 106.955 196.857 88.5752 184.152 74.3822L194.794 63.7563C210.29 80.7803 218.853 102.984 218.797 126C218.834 138.187 216.449 150.26 211.78 161.518C207.111 172.776 200.252 182.996 191.6 191.583C183.01 200.228 172.787 207.082 161.525 211.746C150.264 216.411 138.187 218.794 125.997 218.757C102.964 218.813 80.7426 210.254 63.7024 194.764L74.3545 184.107ZM208.639 208.603C197.814 219.487 184.934 228.115 170.748 233.987C156.562 239.859 141.351 242.859 125.997 242.812C96.573 242.893 68.2181 231.794 46.6739 211.764L57.2209 201.253C75.9781 218.483 100.543 228.013 126.018 227.944C139.419 227.981 152.694 225.358 165.073 220.229C177.452 215.099 188.69 207.564 198.134 198.061C207.632 188.62 215.162 177.39 220.289 165.021C225.415 152.652 228.036 139.389 228 126C228.063 100.54 218.525 75.9903 201.286 57.2463L211.801 46.7253C254.147 92.4947 253.138 164.136 208.639 208.603Z"/>
</mask>
<path d="M218.314 40.2363L219.046 39.5551L219.041 39.5489L219.035 39.5429L218.314 40.2363ZM215.152 36.9078L214.445 37.6151L215.152 36.9078ZM211.791 33.7369L211.107 34.4671L211.115 34.4739L211.791 33.7369ZM125.997 0.000473522L125.994 1.00048L126 1.00047L125.997 0.000473522ZM36.8518 36.8973L37.5587 37.6046L37.5605 37.6029L36.8518 36.8973ZM33.6898 211.764L34.4268 211.088L34.4216 211.082L33.6898 211.764ZM36.8413 215.124L36.1243 215.821L36.131 215.828L36.1378 215.834L36.8413 215.124ZM40.1714 218.274L40.8541 217.543L40.854 217.543L40.1714 218.274ZM125.997 252V251L125.994 251L125.997 252ZM215.152 215.124L215.859 215.831L215.859 215.831L215.152 215.124ZM43.3544 43.3968L44.0613 44.1041L44.0631 44.1022L43.3544 43.3968ZM125.997 9.17744L125.994 10.1774H125.997V9.17744ZM205.309 40.2363L206.016 40.9433L206.751 40.2088L205.989 39.5029L205.309 40.2363ZM194.794 50.7573L194.117 51.4939L194.823 52.1421L195.501 51.4642L194.794 50.7573ZM125.997 24.0664L125.994 25.0664L125.999 25.0664L125.997 24.0664ZM53.8803 53.9283L54.5854 54.6375L54.5893 54.6336L53.8803 53.9283ZM24.0148 126H25.0148L25.0148 125.997L24.0148 126ZM50.7183 194.764L51.4246 195.472L52.1025 194.796L51.4562 194.089L50.7183 194.764ZM40.1819 205.275L39.4479 205.954L40.1531 206.716L40.8881 205.983L40.1819 205.275ZM188.302 57.2358H189.302V56.7919L188.972 56.4941L188.302 57.2358ZM188.302 57.2568L189.008 57.9644L189.302 57.6714V57.2568H188.302ZM177.639 67.9037L176.971 68.6482L177.676 69.28L178.346 68.6114L177.639 67.9037ZM125.997 48.1848L125.994 49.1848L125.998 49.1848L125.997 48.1848ZM70.9614 70.9802L71.6662 71.6897L71.6705 71.6853L70.9614 70.9802ZM48.1446 126L49.1446 126.002L49.1446 125.998L48.1446 126ZM67.8624 177.586L68.57 178.293L69.2391 177.623L68.6065 176.918L67.8624 177.586ZM57.2104 188.254L56.4711 188.928L57.1772 189.703L57.918 188.961L57.2104 188.254ZM33.2066 126L34.2066 126.003L34.2066 125.997L33.2066 126ZM60.3934 60.4278L61.0981 61.1373L61.1025 61.1329L60.3934 60.4278ZM125.997 33.2539L125.994 34.2539H125.997V33.2539ZM194.668 126L193.668 125.999V126H194.668ZM125.997 194.649V193.649H125.996L125.997 194.649ZM80.8675 177.628L79.8974 177.871L79.9729 178.173L80.2066 178.379L80.8675 177.628ZM80.857 177.586L81.8271 177.344L81.7496 177.034L81.5065 176.826L80.857 177.586ZM77.4534 174.531L76.7346 175.226L76.7422 175.234L76.7499 175.242L77.4534 174.531ZM74.3755 171.108L75.1429 170.467L75.134 170.456L75.1249 170.446L74.3755 171.108ZM57.3574 126L58.3574 126.002V126H57.3574ZM77.4639 77.4797L78.1706 78.1873L78.173 78.1849L77.4639 77.4797ZM125.997 57.3828L125.994 58.3828H125.997V57.3828ZM171.116 74.3927L170.456 75.1446L170.462 75.1492L171.116 74.3927ZM174.54 77.4902L173.823 78.1872L173.828 78.1924L173.833 78.1975L174.54 77.4902ZM177.639 80.8922L176.882 81.546L176.889 81.5539L177.639 80.8922ZM74.3545 184.107L75.0221 183.362L74.3168 182.73L73.6472 183.4L74.3545 184.107ZM125.997 203.836L126 202.836H125.996L125.997 203.836ZM181.032 181.009L180.328 180.299L180.322 180.305L181.032 181.009ZM203.859 126L202.859 125.999V126.003L203.859 126ZM184.152 74.3822L183.446 73.6746L182.775 74.3437L183.407 75.0492L184.152 74.3822ZM194.794 63.7563L195.533 63.0831L194.828 62.3086L194.087 63.0486L194.794 63.7563ZM218.797 126L217.797 125.998L217.797 126.003L218.797 126ZM191.6 191.583L190.896 190.873L190.891 190.878L191.6 191.583ZM125.997 218.757L126 217.757L125.994 217.757L125.997 218.757ZM63.7024 194.764L62.9952 194.057L62.2539 194.799L63.0298 195.504L63.7024 194.764ZM208.639 208.603L207.932 207.896L207.93 207.898L208.639 208.603ZM125.997 242.812L126 241.812L125.994 241.812L125.997 242.812ZM46.6739 211.764L45.968 211.055L45.2322 211.789L45.993 212.496L46.6739 211.764ZM57.2209 201.253L57.8974 200.517L57.1927 199.87L56.515 200.545L57.2209 201.253ZM126.018 227.944L126.021 226.944L126.015 226.944L126.018 227.944ZM198.134 198.061L197.429 197.352L197.425 197.356L198.134 198.061ZM228 126L227 125.998L227 126.003L228 126ZM201.286 57.2463L200.578 56.5394L199.901 57.2175L200.55 57.9232L201.286 57.2463ZM211.801 46.7253L212.535 46.0462L211.829 45.2829L211.094 46.0184L211.801 46.7253ZM219.035 39.5429C218.02 38.4885 216.95 37.2913 215.859 36.2006L214.445 37.6151C215.539 38.7084 216.486 39.7792 217.594 40.9298L219.035 39.5429ZM215.859 36.2006C214.759 35.1012 213.608 34.047 212.467 32.9998L211.115 34.4739C212.263 35.5267 213.381 36.5515 214.445 37.6151L215.859 36.2006ZM212.474 33.0066C189.033 11.0751 158.102 -1.08781 125.994 -0.999523L126 1.00047C157.598 0.913581 188.039 12.8836 211.107 34.4671L212.474 33.0066ZM125.999 -0.999523C109.306 -1.04443 92.7692 2.21938 77.3456 8.60314L78.1105 10.4511C93.2898 4.16842 109.565 0.956272 125.994 1.00047L125.999 -0.999523ZM77.3456 8.60314C61.9221 14.9869 47.9179 24.3639 36.1431 36.1918L37.5605 37.6029C49.1488 25.9623 62.9312 16.7338 78.1105 10.4511L77.3456 8.60314ZM36.1449 36.1901C-12.3084 84.6203 -13.3455 162.724 32.958 212.445L34.4216 211.082C-11.1511 162.146 -10.1293 85.27 37.5587 37.6046L36.1449 36.1901ZM32.9528 212.44C33.994 213.575 35.0316 214.697 36.1243 215.821L37.5583 214.427C36.487 213.325 35.4656 212.221 34.4268 211.088L32.9528 212.44ZM36.1378 215.834C37.2439 216.929 38.3749 217.964 39.4887 219.004L40.854 217.543C39.7198 216.483 38.6237 215.481 37.5448 214.413L36.1378 215.834ZM39.4887 219.004C62.9488 240.924 93.8858 253.081 125.999 253L125.994 251C94.3893 251.079 63.9425 239.115 40.8541 217.543L39.4887 219.004ZM125.997 253C159.94 253 191.856 239.801 215.859 215.831L214.446 214.416C190.819 238.011 159.411 251 125.997 251V253ZM215.859 215.831C264.313 167.401 265.339 89.297 219.046 39.5551L217.582 40.9176C263.145 89.8753 262.133 166.751 214.445 214.416L215.859 215.831ZM44.0631 44.1022C54.7985 33.3156 67.5671 24.7634 81.6302 18.9403L80.8651 17.0924C66.5577 23.0166 53.5674 31.7173 42.6456 42.6914L44.0631 44.1022ZM81.6302 18.9403C95.6934 13.1172 110.772 10.1388 125.994 10.1774L125.999 8.17745C110.513 8.13817 95.1724 11.1682 80.8651 17.0924L81.6302 18.9403ZM125.997 10.1774C155.421 10.1774 183.174 21.0863 204.629 40.9698L205.989 39.5029C184.164 19.2765 155.925 8.17744 125.997 8.17744V10.1774ZM204.602 39.5294L194.086 50.0504L195.501 51.4642L206.016 40.9433L204.602 39.5294ZM195.47 50.0207C176.524 32.6266 151.719 23.0031 125.994 23.0664L125.999 25.0664C151.222 25.0043 175.542 34.4399 194.117 51.4939L195.47 50.0207ZM125.999 23.0664C112.468 23.0294 99.064 25.6758 86.563 30.8522L87.3281 32.7001C99.5849 27.6248 112.727 25.0302 125.994 25.0664L125.999 23.0664ZM86.563 30.8522C74.0619 36.0286 62.7123 43.6323 53.1714 53.223L54.5893 54.6336C63.9437 45.2304 75.0714 37.7753 87.3281 32.7001L86.563 30.8522ZM53.1753 53.2191C43.5832 62.7552 35.9786 74.0981 30.8015 86.5914L32.6492 87.357C37.7249 75.1081 45.1808 63.9871 54.5853 54.6375L53.1753 53.2191ZM30.8015 86.5914C25.6245 99.0847 22.9778 112.48 23.0148 126.003L25.0148 125.997C24.9785 112.739 27.5734 99.6059 32.6492 87.357L30.8015 86.5914ZM23.0148 126C23.0148 151.954 32.5632 176.397 49.9804 195.439L51.4562 194.089C34.3752 175.415 25.0148 151.453 25.0148 126H23.0148ZM50.0121 194.056L39.4756 204.567L40.8881 205.983L51.4246 195.472L50.0121 194.056ZM40.9158 204.596C-1.07693 159.219 -0.0347883 88.1793 44.0613 44.1041L42.6474 42.6895C-2.21238 87.5281 -3.27122 159.792 39.4479 205.954L40.9158 204.596ZM187.302 57.2358V57.2568H189.302V57.2358H187.302ZM187.595 56.5492L176.932 67.1961L178.346 68.6114L189.008 57.9644L187.595 56.5492ZM178.307 67.1592C163.936 54.2725 145.302 47.1575 125.995 47.1848L125.998 49.1848C144.811 49.1582 162.968 56.0912 176.971 68.6482L178.307 67.1592ZM126 47.1848C115.641 47.1558 105.38 49.1817 95.8106 53.1453L96.576 54.9931C105.901 51.1307 115.9 49.1565 125.994 49.1848L126 47.1848ZM95.8106 53.1453C86.2413 57.1089 77.554 62.9313 70.2522 70.2752L71.6705 71.6853C78.7857 64.5291 87.251 58.8554 96.576 54.9931L95.8106 53.1453ZM70.2566 70.2708C62.9085 77.5712 57.0821 86.256 53.1149 95.8224L54.9624 96.5886C58.8282 87.2666 64.5057 78.8036 71.6662 71.6896L70.2566 70.2708ZM53.1149 95.8224C49.1477 105.389 47.1185 115.647 47.1446 126.003L49.1446 125.998C49.1191 115.906 51.0965 105.911 54.9624 96.5886L53.1149 95.8224ZM47.1446 125.999C47.1162 145.285 54.2312 163.9 67.1183 178.254L68.6065 176.918C56.0496 162.931 49.1169 144.794 49.1446 126.002L47.1446 125.999ZM67.1548 176.88L56.5027 187.548L57.918 188.961L68.57 178.293L67.1548 176.88ZM57.9497 187.581C42.6126 170.743 34.1418 148.774 34.2066 126.003L32.2066 125.997C32.1404 149.268 40.7973 171.72 56.4711 188.928L57.9497 187.581ZM34.2066 125.997C34.1731 113.946 36.5327 102.007 41.1488 90.8735L39.3013 90.1075C34.5838 101.486 32.1723 113.686 32.2066 126.003L34.2066 125.997ZM41.1488 90.8735C45.7649 79.7399 52.5456 69.6326 61.0981 61.1372L59.6886 59.7183C50.9484 68.4001 44.0188 78.7293 39.3013 90.1075L41.1488 90.8735ZM61.1025 61.1329C69.6022 52.5849 79.7144 45.8076 90.8534 41.1937L90.088 39.3459C78.7047 44.0611 68.3706 50.987 59.6843 59.7227L61.1025 61.1329ZM90.8534 41.1937C101.992 36.5798 113.937 34.2209 125.994 34.2539L125.999 32.2539C113.678 32.2202 101.471 34.6308 90.088 39.3459L90.8534 41.1937ZM125.997 34.2539C148.996 34.2539 170.691 42.6559 187.631 57.9774L188.972 56.4941C171.666 40.8407 149.493 32.2539 125.997 32.2539V34.2539ZM193.668 126C193.668 144.057 186.62 161.043 173.833 173.824L175.247 175.238C188.408 162.084 195.668 144.588 195.668 126H193.668ZM173.833 173.824C161.047 186.604 144.073 193.649 125.997 193.649V195.649C144.604 195.649 162.086 188.393 175.247 175.238L173.833 173.824ZM125.996 193.649C109.624 193.66 93.8116 187.697 81.5285 176.878L80.2066 178.379C92.8554 189.52 109.139 195.661 125.997 195.649L125.996 193.649ZM81.8376 177.386L81.8271 177.344L79.8869 177.829L79.8974 177.871L81.8376 177.386ZM81.5065 176.826C80.3465 175.835 79.2191 174.872 78.1569 173.82L76.7499 175.242C77.8728 176.353 79.0564 177.364 80.2075 178.347L81.5065 176.826ZM78.1722 173.836C77.1219 172.75 76.1114 171.626 75.1429 170.467L73.608 171.749C74.6077 172.946 75.6506 174.105 76.7346 175.226L78.1722 173.836ZM75.1249 170.446C64.2879 158.178 58.3229 142.367 58.3574 126.002L56.3575 125.998C56.3219 142.852 62.4652 159.136 73.626 171.77L75.1249 170.446ZM58.3574 126C58.3574 107.932 65.385 90.9564 78.1706 78.1873L76.7573 76.7721C63.5956 89.9169 56.3574 107.402 56.3574 126H58.3574ZM78.173 78.1849C84.437 71.8863 91.8892 66.8928 100.098 63.4936L99.3327 61.6458C90.8796 65.1461 83.2054 70.2884 76.7549 76.7746L78.173 78.1849ZM100.098 63.4936C108.307 60.0945 117.109 58.3573 125.994 58.3828L126 56.3828C116.85 56.3566 107.786 58.1455 99.3327 61.6458L100.098 63.4936ZM125.997 58.3828C142.549 58.3828 158.136 64.3409 170.456 75.1446L171.775 73.6408C159.093 62.5206 143.039 56.3828 125.997 56.3828V58.3828ZM170.462 75.1492C171.649 76.1756 172.79 77.1246 173.823 78.1872L175.257 76.7933C174.147 75.6508 172.914 74.6258 171.769 73.6362L170.462 75.1492ZM173.833 78.1975C174.897 79.2607 175.884 80.3904 176.882 81.546L178.396 80.2384C177.398 79.084 176.368 77.9037 175.247 76.7829L173.833 78.1975ZM176.889 81.5539C187.72 93.8264 193.688 109.634 193.668 125.999L195.668 126.001C195.688 109.148 189.543 92.869 178.389 80.2305L176.889 81.5539ZM73.6868 184.851C88.0551 197.737 106.694 204.855 125.998 204.836L125.996 202.836C107.185 202.855 89.0227 195.918 75.0221 183.362L73.6868 184.851ZM125.994 204.836C136.355 204.865 146.619 202.836 156.189 198.867L155.423 197.019C146.098 200.887 136.096 202.865 126 202.836L125.994 204.836ZM156.189 198.867C165.76 194.897 174.445 189.067 181.742 181.714L180.322 180.305C173.212 187.47 164.749 193.151 155.423 197.019L156.189 198.867ZM181.737 181.719C189.089 174.424 194.919 165.741 198.889 156.176L197.041 155.41C193.174 164.73 187.493 173.19 180.328 180.299L181.737 181.719ZM198.889 156.176C202.858 146.611 204.887 136.353 204.859 125.997L202.859 126.003C202.887 136.093 200.909 146.089 197.041 155.41L198.889 156.176ZM204.859 126.001C204.875 106.71 197.766 88.0918 184.897 73.7153L183.407 75.0492C195.948 89.0586 202.874 107.201 202.859 125.999L204.859 126.001ZM184.859 75.0898L195.5 64.4639L194.087 63.0486L183.446 73.6746L184.859 75.0898ZM194.054 64.4294C209.383 81.2687 217.853 103.232 217.797 125.998L219.797 126.002C219.854 102.737 211.198 80.2918 195.533 63.0831L194.054 64.4294ZM217.797 126.003C217.834 138.058 215.475 149.999 210.857 161.135L212.704 161.901C217.423 150.521 219.835 138.316 219.797 125.997L217.797 126.003ZM210.857 161.135C206.238 172.271 199.454 182.379 190.896 190.873L192.305 192.293C201.05 183.612 207.984 173.282 212.704 161.901L210.857 161.135ZM190.891 190.878C182.394 199.429 172.282 206.208 161.143 210.823L161.908 212.67C173.292 207.955 183.626 201.027 192.309 192.288L190.891 190.878ZM161.143 210.823C150.003 215.437 138.058 217.794 126 217.757L125.994 219.757C138.316 219.794 150.524 217.386 161.908 212.67L161.143 210.823ZM125.994 217.757C103.211 217.812 81.2305 209.346 64.3751 194.024L63.0298 195.504C80.2547 211.162 102.716 219.813 125.999 219.757L125.994 217.757ZM64.4097 195.471L75.0617 184.814L73.6472 183.4L62.9952 194.057L64.4097 195.471ZM207.93 207.898C197.198 218.688 184.43 227.241 170.366 233.063L171.131 234.911C185.439 228.988 198.429 220.286 209.348 209.308L207.93 207.898ZM170.366 233.063C156.302 238.885 141.222 241.858 126 241.812L125.994 243.812C141.48 243.859 156.822 240.834 171.131 234.911L170.366 233.063ZM125.994 241.812C96.8238 241.892 68.7132 230.889 47.3548 211.031L45.993 212.496C67.7229 232.7 96.3223 243.894 126 243.812L125.994 241.812ZM47.3798 212.472L57.9268 201.962L56.515 200.545L45.968 211.055L47.3798 212.472ZM56.5444 201.99C75.4869 219.389 100.294 229.014 126.02 228.944L126.015 226.944C100.792 227.012 76.4693 217.576 57.8974 200.517L56.5444 201.99ZM126.015 228.944C139.548 228.981 152.954 226.333 165.456 221.153L164.69 219.305C152.433 224.384 139.289 226.981 126.021 226.944L126.015 228.944ZM165.456 221.153C177.958 215.972 189.306 208.363 198.844 198.766L197.425 197.356C188.074 206.766 176.947 214.226 164.69 219.305L165.456 221.153ZM198.839 198.771C208.431 189.236 216.035 177.895 221.213 165.404L219.365 164.638C214.289 176.885 206.833 188.004 197.429 197.352L198.839 198.771ZM221.213 165.404C226.39 152.912 229.036 139.518 229 125.997L227 126.003C227.036 139.259 224.441 152.391 219.365 164.638L221.213 165.404ZM229 126.003C229.064 100.29 219.431 75.4986 202.022 56.5693L200.55 57.9232C217.618 76.4821 227.063 100.789 227 125.998L229 126.003ZM201.993 57.9532L212.508 47.4322L211.094 46.0184L200.578 56.5394L201.993 57.9532ZM211.067 47.4044C253.05 92.7817 252.049 163.811 207.932 207.896L209.346 209.311C254.227 164.461 255.243 92.2076 212.535 46.0462L211.067 47.4044Z" fill="url(#paint0_angular_833_635)" mask="url(#path-1-inside-1_833_635)"/>
<defs>
<radialGradient id="paint0_angular_833_635" cx="0" cy="0" r="1" gradientUnits="userSpaceOnUse" gradientTransform="translate(126 126) rotate(90) scale(126)">
<stop offset="0.0993526" stop-color="#16BAB2"/>
<stop offset="0.427081" stop-color="#79FFF7"/>
<stop offset="0.718753" stop-color="#9F53FF"/>
<stop offset="1" stop-color="#FF98E2"/>
</radialGradient>
</defs>
</svg>
