<svg width="324" height="324" viewBox="0 0 324 324" fill="none" xmlns="http://www.w3.org/2000/svg">
<mask id="path-1-inside-1_842_660" fill="white">
<path d="M235.594 90.121C242.48 83.2849 242.48 72.1526 235.594 65.303L210.306 39.9985L210.347 40.0255L175.865 5.57472C172.148 1.96922 167.166 -0.032448 161.99 0.000397935C156.814 0.0332439 151.857 2.09797 148.187 5.75036L5.74883 148.215C3.92697 150.026 2.48114 152.181 1.49453 154.554C0.507919 156.927 0 159.472 0 162.042C0 164.612 0.507919 167.157 1.49453 169.53C2.48114 171.903 3.92697 174.058 5.74883 175.87L148.174 318.266C151.845 321.938 156.822 324 162.012 324C167.202 324 172.18 321.938 175.851 318.266L235.567 258.552C237.201 256.924 238.497 254.989 239.382 252.858C240.266 250.727 240.722 248.443 240.722 246.136C240.722 243.829 240.266 241.544 239.382 239.414C238.497 237.283 237.201 235.348 235.567 233.72C232.266 230.437 227.801 228.594 223.146 228.594C218.492 228.594 214.026 230.437 210.725 233.72L165.496 279.033C165.061 279.479 164.541 279.833 163.967 280.075C163.393 280.316 162.777 280.441 162.154 280.441C161.531 280.441 160.915 280.316 160.341 280.075C159.767 279.833 159.248 279.479 158.813 279.033L45.0375 165.291C44.5921 164.856 44.2382 164.336 43.9966 163.762C43.7549 163.187 43.6304 162.571 43.6304 161.948C43.6304 161.325 43.7549 160.708 43.9966 160.134C44.2382 159.559 44.5921 159.039 45.0375 158.604L158.772 44.8486C158.907 44.7135 159.096 44.6055 159.245 44.4568C160.141 43.7314 161.278 43.3704 162.429 43.4455C163.58 43.5206 164.66 44.0263 165.455 44.8621L210.738 90.121C212.369 91.757 214.306 93.0551 216.438 93.9407C218.571 94.8264 220.857 95.2822 223.166 95.2822C225.475 95.2822 227.762 94.8264 229.894 93.9407C232.027 93.0551 233.964 91.757 235.594 90.121ZM124.29 162.751C124.29 172.949 128.341 182.729 135.552 189.94C142.763 197.15 152.543 201.201 162.741 201.201C172.939 201.201 182.72 197.15 189.931 189.94C197.142 182.729 201.193 172.949 201.193 162.751C201.193 152.554 197.142 142.774 189.931 135.563C182.72 128.353 172.939 124.302 162.741 124.302C152.543 124.302 142.763 128.353 135.552 135.563C128.341 142.774 124.29 152.554 124.29 162.751ZM318.262 148.782L273.789 104.482C270.486 101.193 266.013 99.3506 261.353 99.3582C256.693 99.3658 252.226 101.223 248.933 104.523C247.3 106.151 246.003 108.086 245.119 110.216C244.234 112.347 243.779 114.631 243.779 116.939C243.779 119.246 244.234 121.53 245.119 123.661C246.003 125.792 247.3 127.726 248.933 129.354L278.96 159.374C280.85 161.252 280.85 164.184 278.96 166.061L249.366 195.649C247.734 197.276 246.439 199.21 245.556 201.34C244.673 203.469 244.218 205.752 244.218 208.058C244.218 210.363 244.673 212.646 245.556 214.775C246.439 216.905 247.734 218.839 249.366 220.467C252.667 223.75 257.132 225.593 261.787 225.593C266.441 225.593 270.907 223.75 274.208 220.467L318.276 176.424C320.093 174.608 321.534 172.452 322.516 170.078C323.498 167.704 324.002 165.16 324 162.59C323.997 160.021 323.488 157.478 322.501 155.106C321.514 152.734 320.069 150.58 318.249 148.768"/>
</mask>
<path d="M235.594 90.121L234.185 88.7017L234.178 88.7092L235.594 90.121ZM235.594 65.303L234.18 66.7167L234.184 66.7209L235.594 65.303ZM210.306 39.9985L211.416 38.3348L208.892 41.4123L210.306 39.9985ZM210.347 40.0255L209.237 41.6892L211.76 38.6107L210.347 40.0255ZM175.865 5.57472L177.278 4.15987L177.268 4.14949L177.257 4.13927L175.865 5.57472ZM148.187 5.75036L146.776 4.33268L146.773 4.33627L148.187 5.75036ZM5.74883 148.215L7.15914 149.633L7.16317 149.629L5.74883 148.215ZM0 162.042H-2H0ZM5.74883 175.87L7.16291 174.455L7.15914 174.452L5.74883 175.87ZM148.174 318.266L149.588 316.852L149.588 316.852L148.174 318.266ZM162.012 324V326V324ZM175.851 318.266L174.437 316.852L174.437 316.852L175.851 318.266ZM235.567 258.552L234.155 257.135L234.153 257.137L235.567 258.552ZM240.722 246.136H242.722H240.722ZM235.567 233.72L236.979 232.303L236.978 232.302L235.567 233.72ZM210.725 233.72L209.314 232.302L209.309 232.307L210.725 233.72ZM165.496 279.033L164.08 277.62L164.072 277.628L164.065 277.636L165.496 279.033ZM162.154 280.441V282.441V280.441ZM158.813 279.033L160.244 277.636L160.235 277.627L160.227 277.619L158.813 279.033ZM45.0375 165.291L46.4515 163.877L46.4436 163.869L46.4356 163.861L45.0375 165.291ZM43.6304 161.948H45.6304H43.6304ZM45.0375 158.604L46.4356 160.034L46.4437 160.026L46.4518 160.018L45.0375 158.604ZM158.772 44.8486L160.186 46.2627L160.187 46.2624L158.772 44.8486ZM159.245 44.4568L157.987 42.9018L157.905 42.9683L157.83 43.0431L159.245 44.4568ZM165.455 44.8621L164.006 46.2406L164.023 46.2589L164.041 46.2767L165.455 44.8621ZM210.738 90.121L212.155 88.7092L212.152 88.7064L210.738 90.121ZM124.29 162.751H122.29H124.29ZM273.789 104.482L275.201 103.065L275.2 103.065L273.789 104.482ZM248.933 104.523L250.345 105.939L250.349 105.936L248.933 104.523ZM243.779 116.939H241.779H243.779ZM248.933 129.354L250.348 127.94L250.345 127.938L248.933 129.354ZM278.96 159.374L277.546 160.788L277.551 160.793L278.96 159.374ZM278.96 166.061L277.551 164.643L277.546 164.647L278.96 166.061ZM249.366 195.649L250.778 197.064L250.78 197.063L249.366 195.649ZM249.366 220.467L247.953 221.883L247.955 221.885L249.366 220.467ZM274.208 220.467L275.618 221.885L275.622 221.881L274.208 220.467ZM318.276 176.424L316.862 175.009L316.862 175.009L318.276 176.424ZM237.003 91.5403C244.678 83.9213 244.676 71.5158 237.005 63.885L234.184 66.7209C240.284 72.7894 240.282 82.6486 234.185 88.7017L237.003 91.5403ZM237.009 63.8892L211.721 38.5848L208.892 41.4123L234.18 66.7167L237.009 63.8892ZM209.196 41.6622L209.237 41.6892L211.457 38.3619L211.416 38.3348L209.196 41.6622ZM211.76 38.6107L177.278 4.15987L174.451 6.98958L208.933 41.4404L211.76 38.6107ZM177.257 4.13927C173.165 0.168778 167.678 -2.03574 161.977 -1.99956L162.003 2.00036C166.654 1.97084 171.132 3.76965 174.472 7.01018L177.257 4.13927ZM161.977 -1.99956C156.277 -1.96339 150.818 0.310582 146.776 4.33268L149.598 7.16803C152.897 3.88537 157.351 2.02988 162.003 2.00036L161.977 -1.99956ZM146.773 4.33627L4.33449 146.8L7.16317 149.629L149.601 7.16444L146.773 4.33627ZM4.33852 146.796C2.3297 148.794 0.735567 151.17 -0.352222 153.786L3.34129 155.322C4.22672 153.192 5.52425 151.259 7.15914 149.633L4.33852 146.796ZM-0.352222 153.786C-1.44001 156.403 -2 159.208 -2 162.042H2C2 159.735 2.45585 157.451 3.34129 155.322L-0.352222 153.786ZM-2 162.042C-2 164.876 -1.44001 167.682 -0.352222 170.298L3.34129 168.763C2.45585 166.633 2 164.349 2 162.042H-2ZM-0.352222 170.298C0.735566 172.915 2.3297 175.29 4.33852 177.288L7.15914 174.452C5.52425 172.826 4.22672 170.892 3.34129 168.763L-0.352222 170.298ZM4.33476 177.284L146.76 319.681L149.588 316.852L7.1629 174.455L4.33476 177.284ZM146.759 319.681C150.805 323.727 156.292 326 162.012 326V322C157.353 322 152.884 320.149 149.588 316.852L146.759 319.681ZM162.012 326C167.733 326 173.219 323.727 177.265 319.681L174.437 316.852C171.141 320.149 166.672 322 162.012 322V326ZM177.265 319.681L236.981 259.966L234.153 257.137L174.437 316.852L177.265 319.681ZM236.979 259.968C238.799 258.154 240.243 255.999 241.229 253.625L237.535 252.091C236.751 253.979 235.603 255.693 234.155 257.135L236.979 259.968ZM241.229 253.625C242.214 251.251 242.722 248.706 242.722 246.136H238.722C238.722 248.18 238.318 250.204 237.535 252.091L241.229 253.625ZM242.722 246.136C242.722 243.566 242.214 241.021 241.229 238.647L237.535 240.18C238.318 242.068 238.722 244.092 238.722 246.136H242.722ZM241.229 238.647C240.243 236.273 238.799 234.117 236.979 232.303L234.155 235.137C235.603 236.579 236.751 238.293 237.535 240.18L241.229 238.647ZM236.978 232.302C233.302 228.646 228.329 226.594 223.146 226.594V230.594C227.272 230.594 231.23 232.227 234.157 235.138L236.978 232.302ZM223.146 226.594C217.963 226.594 212.99 228.646 209.314 232.302L212.135 235.138C215.062 232.227 219.02 230.594 223.146 230.594V226.594ZM209.309 232.307L164.08 277.62L166.911 280.446L212.14 235.133L209.309 232.307ZM164.065 277.636C163.816 277.891 163.518 278.093 163.19 278.232L164.744 281.918C165.563 281.572 166.305 281.067 166.927 280.43L164.065 277.636ZM163.19 278.232C162.862 278.37 162.51 278.441 162.154 278.441V282.441C163.044 282.441 163.924 282.263 164.744 281.918L163.19 278.232ZM162.154 278.441C161.798 278.441 161.446 278.37 161.118 278.232L159.565 281.918C160.384 282.263 161.265 282.441 162.154 282.441V278.441ZM161.118 278.232C160.79 278.093 160.493 277.891 160.244 277.636L157.381 280.43C158.003 281.067 158.745 281.572 159.565 281.918L161.118 278.232ZM160.227 277.619L46.4515 163.877L43.6235 166.706L157.399 280.447L160.227 277.619ZM46.4356 163.861C46.1808 163.612 45.9783 163.315 45.84 162.986L42.1531 164.537C42.4981 165.357 43.0034 166.1 43.6394 166.722L46.4356 163.861ZM45.84 162.986C45.7017 162.657 45.6304 162.304 45.6304 161.948H41.6304C41.6304 162.837 41.8081 163.718 42.1531 164.537L45.84 162.986ZM45.6304 161.948C45.6304 161.591 45.7017 161.238 45.84 160.909L42.1531 159.358C41.8081 160.178 41.6304 161.058 41.6304 161.948H45.6304ZM45.84 160.909C45.9783 160.581 46.1808 160.283 46.4356 160.034L43.6394 157.174C43.0034 157.795 42.4981 158.538 42.1531 159.358L45.84 160.909ZM46.4518 160.018L160.186 46.2627L157.358 43.4346L43.6231 157.19L46.4518 160.018ZM160.187 46.2624C160.152 46.2969 160.13 46.3141 160.137 46.3085C160.147 46.3007 160.16 46.2902 160.209 46.2535C160.278 46.2015 160.472 46.058 160.659 45.8706L157.83 43.0431C157.869 43.0043 157.894 42.9892 157.798 43.0621C157.763 43.0879 157.695 43.139 157.627 43.1941C157.556 43.2515 157.459 43.3328 157.357 43.4349L160.187 46.2624ZM160.502 46.0119C161.008 45.6025 161.65 45.3989 162.299 45.4412L162.559 41.4497C160.907 41.3419 159.274 41.8604 157.987 42.9018L160.502 46.0119ZM162.299 45.4412C162.948 45.4836 163.557 45.7688 164.006 46.2406L166.904 43.4837C165.763 42.2838 164.212 41.5576 162.559 41.4497L162.299 45.4412ZM164.041 46.2767L209.325 91.5356L212.152 88.7064L166.869 43.4476L164.041 46.2767ZM209.322 91.5328C211.138 93.3552 213.296 94.8011 215.671 95.7878L217.206 92.0937C215.316 91.309 213.6 90.1589 212.155 88.7092L209.322 91.5328ZM215.671 95.7878C218.047 96.7744 220.594 97.2822 223.166 97.2822V93.2822C221.121 93.2822 219.095 92.8783 217.206 92.0937L215.671 95.7878ZM223.166 97.2822C225.739 97.2822 228.286 96.7744 230.661 95.7878L229.127 92.0937C227.238 92.8783 225.212 93.2822 223.166 93.2822V97.2822ZM230.661 95.7878C233.037 94.8011 235.195 93.3552 237.011 91.5328L234.178 88.7092C232.733 90.1589 231.017 91.309 229.127 92.0937L230.661 95.7878ZM122.29 162.751C122.29 173.479 126.552 183.768 134.138 191.354L136.966 188.525C130.13 181.69 126.29 172.419 126.29 162.751H122.29ZM134.138 191.354C141.724 198.94 152.013 203.201 162.741 203.201V199.201C153.074 199.201 143.802 195.361 136.966 188.525L134.138 191.354ZM162.741 203.201C173.47 203.201 183.759 198.94 191.345 191.354L188.517 188.525C181.681 195.361 172.409 199.201 162.741 199.201V203.201ZM191.345 191.354C198.931 183.768 203.193 173.479 203.193 162.751H199.193C199.193 172.419 195.353 181.69 188.517 188.525L191.345 191.354ZM203.193 162.751C203.193 152.023 198.931 141.735 191.345 134.149L188.517 136.978C195.353 143.813 199.193 153.084 199.193 162.751H203.193ZM191.345 134.149C183.759 126.563 173.47 122.302 162.741 122.302V126.302C172.409 126.302 181.681 130.142 188.517 136.978L191.345 134.149ZM162.741 122.302C152.013 122.302 141.724 126.563 134.138 134.149L136.966 136.978C143.802 130.142 153.074 126.302 162.741 126.302V122.302ZM134.138 134.149C126.552 141.735 122.29 152.023 122.29 162.751H126.29C126.29 153.084 130.13 143.813 136.966 136.978L134.138 134.149ZM319.674 147.365L275.201 103.065L272.378 105.899L316.851 150.199L319.674 147.365ZM275.2 103.065C271.521 99.4023 266.54 97.3497 261.35 97.3582L261.356 101.358C265.486 101.351 269.45 102.985 272.378 105.9L275.2 103.065ZM261.35 97.3582C256.159 97.3666 251.185 99.4354 247.518 103.11L250.349 105.936C253.268 103.011 257.226 101.365 261.356 101.358L261.35 97.3582ZM247.522 103.106C245.701 104.92 244.257 107.076 243.272 109.45L246.966 110.983C247.75 109.096 248.898 107.382 250.345 105.939L247.522 103.106ZM243.272 109.45C242.286 111.823 241.779 114.368 241.779 116.939H245.779C245.779 114.895 246.183 112.871 246.966 110.983L243.272 109.45ZM241.779 116.939C241.779 119.509 242.286 122.054 243.272 124.428L246.966 122.894C246.182 121.007 245.779 118.983 245.779 116.939H241.779ZM243.272 124.428C244.257 126.801 245.701 128.957 247.522 130.771L250.345 127.938C248.898 126.496 247.75 124.782 246.966 122.894L243.272 124.428ZM247.519 130.769L277.546 160.788L280.374 157.96L250.348 127.94L247.519 130.769ZM277.551 160.793C278.654 161.889 278.654 163.547 277.551 164.643L280.37 167.48C283.047 164.82 283.047 160.615 280.37 157.955L277.551 160.793ZM277.546 164.647L247.952 194.234L250.78 197.063L280.374 167.476L277.546 164.647ZM247.953 194.233C246.135 196.046 244.693 198.201 243.709 200.573L247.403 202.106C248.186 200.22 249.333 198.506 250.778 197.064L247.953 194.233ZM243.709 200.573C242.724 202.946 242.218 205.489 242.218 208.058H246.218C246.218 206.015 246.621 203.993 247.403 202.106L243.709 200.573ZM242.218 208.058C242.218 210.626 242.724 213.169 243.709 215.542L247.403 214.009C246.621 212.123 246.218 210.1 246.218 208.058H242.218ZM243.709 215.542C244.693 217.914 246.135 220.069 247.953 221.883L250.778 219.051C249.333 217.609 248.186 215.896 247.403 214.009L243.709 215.542ZM247.955 221.885C251.631 225.541 256.603 227.593 261.787 227.593V223.593C257.661 223.593 253.702 221.96 250.776 219.049L247.955 221.885ZM261.787 227.593C266.97 227.593 271.943 225.541 275.618 221.885L272.797 219.049C269.871 221.96 265.912 223.593 261.787 223.593V227.593ZM275.622 221.881L319.69 177.838L316.862 175.009L272.794 219.052L275.622 221.881ZM319.69 177.838C321.693 175.837 323.281 173.46 324.364 170.843L320.668 169.313C319.786 171.444 318.493 173.38 316.862 175.009L319.69 177.838ZM324.364 170.843C325.447 168.226 326.003 165.421 326 162.589L322 162.592C322.002 164.899 321.55 167.183 320.668 169.313L324.364 170.843ZM326 162.589C325.997 159.756 325.436 156.952 324.348 154.338L320.655 155.874C321.541 158.003 321.998 160.286 322 162.592L326 162.589ZM324.348 154.338C323.26 151.723 321.667 149.348 319.66 147.351L316.838 150.186C318.472 151.812 319.769 153.745 320.655 155.874L324.348 154.338Z" fill="url(#paint0_angular_842_660)" mask="url(#path-1-inside-1_842_660)"/>
<defs>
<radialGradient id="paint0_angular_842_660" cx="0" cy="0" r="1" gradientUnits="userSpaceOnUse" gradientTransform="translate(162 162) rotate(90) scale(162)">
<stop offset="0.0993526" stop-color="#16BAB2"/>
<stop offset="0.427081" stop-color="#79FFF7"/>
<stop offset="0.718753" stop-color="#9F53FF"/>
<stop offset="1" stop-color="#FF98E2"/>
</radialGradient>
</defs>
</svg>
