<svg width="273" height="274" viewBox="0 0 273 274" fill="none" xmlns="http://www.w3.org/2000/svg">
<path d="M22.3828 70.9583C21.0941 70.2143 20.6503 68.5647 21.4199 67.2911C33.1715 47.8455 49.6591 31.6743 69.3611 20.2994C89.063 8.92443 111.312 2.73128 134.028 2.27694C135.515 2.24719 136.722 3.45634 136.722 4.94444L136.722 31.8889C136.722 33.377 135.515 34.5796 134.028 34.6188C116.988 35.0673 100.314 39.7639 85.5278 48.3009C70.7412 56.8379 58.337 68.9295 49.4287 83.4621C48.651 84.7308 47.0061 85.1746 45.7174 84.4306L22.3828 70.9583Z" fill="url(#paint0_linear_793_1158)" stroke="#1F1F25" stroke-width="2.69444"/>
<path d="M43.3645 230.33C42.3122 231.382 40.6041 231.384 39.5731 230.311C19.6811 209.607 6.90625 183.069 3.15257 154.557C-0.601111 126.045 4.86983 97.1045 18.7255 71.958C19.4436 70.6546 21.0941 70.2143 22.3828 70.9583L45.7174 84.4306C47.0061 85.1746 47.4442 86.8212 46.7343 88.129C36.4329 107.108 32.3847 128.882 35.2093 150.337C38.0339 171.792 47.5797 191.776 62.4421 207.442C63.4663 208.521 63.4693 210.225 62.4171 211.277L43.3645 230.33Z" fill="url(#paint1_linear_793_1158)" stroke="#1F1F25" stroke-width="2.69444"/>
<path d="M268.75 136.972C270.238 136.972 271.447 138.179 271.418 139.667C270.904 165.371 263.044 190.412 248.74 211.82C233.936 233.975 212.895 251.243 188.278 261.439C163.661 271.636 136.573 274.304 110.439 269.106C85.1873 264.083 61.9225 251.933 43.3835 234.121C42.3104 233.09 42.3122 231.382 43.3645 230.33L62.4171 211.277C63.4693 210.225 65.1731 210.228 66.2527 211.252C80.2649 224.546 97.7675 233.618 116.747 237.394C136.609 241.344 157.196 239.317 175.905 231.567C194.614 223.818 210.605 210.694 221.855 193.856C232.607 177.766 238.568 158.975 239.076 139.667C239.115 138.179 240.317 136.972 241.806 136.972H268.75Z" fill="url(#paint2_linear_793_1158)" stroke="#1F1F25" stroke-width="2.69444"/>
<path d="M136.722 4.94444C136.722 3.45634 137.929 2.24718 139.417 2.27694C156.191 2.61247 172.763 6.07858 188.278 12.5051C204.623 19.2755 219.475 29.1991 231.985 41.7092C244.495 54.2194 254.419 69.071 261.189 85.4163C267.616 100.931 271.082 117.504 271.418 134.278C271.447 135.766 270.238 136.972 268.75 136.972L241.806 136.972C240.317 136.972 239.115 135.766 239.076 134.278C238.746 121.75 236.119 109.382 231.317 97.7897C226.172 85.3673 218.63 74.08 209.122 64.5724C199.614 55.0647 188.327 47.5228 175.905 42.3772C164.313 37.5756 151.944 34.9485 139.416 34.6188C137.929 34.5796 136.722 33.377 136.722 31.8889V4.94444Z" fill="url(#paint3_linear_793_1158)" stroke="#1F1F25" stroke-width="2.69444"/>
<defs>
<linearGradient id="paint0_linear_793_1158" x1="136.722" y1="2.25" x2="136.722" y2="271.694" gradientUnits="userSpaceOnUse">
<stop stop-color="#4C9AAF"/>
<stop offset="1" stop-color="#33798C"/>
</linearGradient>
<linearGradient id="paint1_linear_793_1158" x1="136.722" y1="2.25" x2="136.722" y2="271.694" gradientUnits="userSpaceOnUse">
<stop stop-color="#DA62C4"/>
<stop offset="1" stop-color="#B1489E"/>
</linearGradient>
<linearGradient id="paint2_linear_793_1158" x1="136.722" y1="2.25" x2="136.722" y2="271.694" gradientUnits="userSpaceOnUse">
<stop stop-color="#4B92E5"/>
<stop offset="1" stop-color="#3672BB"/>
</linearGradient>
<linearGradient id="paint3_linear_793_1158" x1="136.722" y1="2.25" x2="136.722" y2="271.694" gradientUnits="userSpaceOnUse">
<stop stop-color="#C89EF1"/>
<stop offset="1" stop-color="#B176E2"/>
</linearGradient>
</defs>
</svg>
