
<svg xmlns="http://www.w3.org/2000/svg" width="207" height="208" viewBox="0 0 207 208" fill="none">
  <path d="M184.439 42.6333C189.815 42.6333 194.971 40.4928 198.773 36.6827C202.574 32.8726 204.71 27.705 204.71 22.3167C204.71 16.9284 202.574 11.7607 198.773 7.95061C194.971 4.1405 189.815 2 184.439 2C179.063 2 173.907 4.1405 170.105 7.95061C166.304 11.7607 164.168 16.9284 164.168 22.3167C164.168 27.705 166.304 32.8726 170.105 36.6827C173.907 40.4928 179.063 42.6333 184.439 42.6333ZM184.439 205.167C189.815 205.167 194.971 203.026 198.773 199.216C202.574 195.406 204.71 190.238 204.71 184.85C204.71 179.462 202.574 174.294 198.773 170.484C194.971 166.674 189.815 164.533 184.439 164.533C179.063 164.533 173.907 166.674 170.105 170.484C166.304 174.294 164.168 179.462 164.168 184.85C164.168 190.238 166.304 195.406 170.105 199.216C173.907 203.026 179.063 205.167 184.439 205.167ZM22.271 42.6333C27.6472 42.6333 32.8032 40.4928 36.6048 36.6827C40.4063 32.8726 42.542 27.705 42.542 22.3167C42.542 16.9284 40.4063 11.7607 36.6048 7.95061C32.8032 4.1405 27.6472 2 22.271 2C16.8948 2 11.7388 4.1405 7.93724 7.95061C4.13569 11.7607 2 16.9284 2 22.3167C2 27.705 4.13569 32.8726 7.93724 36.6827C11.7388 40.4928 16.8948 42.6333 22.271 42.6333ZM22.271 205.167C27.6472 205.167 32.8032 203.026 36.6048 199.216C40.4063 195.406 42.542 190.238 42.542 184.85C42.542 179.462 40.4063 174.294 36.6048 170.484C32.8032 166.674 27.6472 164.533 22.271 164.533C16.8948 164.533 11.7388 166.674 7.93724 170.484C4.13569 174.294 2 179.462 2 184.85C2 190.238 4.13569 195.406 7.93724 199.216C11.7388 203.026 16.8948 205.167 22.271 205.167Z" stroke="black" stroke-width="4" stroke-linejoin="round"/>
  <path d="M184.439 42.6333C189.815 42.6333 194.971 40.4928 198.773 36.6827C202.574 32.8726 204.71 27.705 204.71 22.3167C204.71 16.9284 202.574 11.7607 198.773 7.95061C194.971 4.1405 189.815 2 184.439 2C179.063 2 173.907 4.1405 170.105 7.95061C166.304 11.7607 164.168 16.9284 164.168 22.3167C164.168 27.705 166.304 32.8726 170.105 36.6827C173.907 40.4928 179.063 42.6333 184.439 42.6333ZM184.439 205.167C189.815 205.167 194.971 203.026 198.773 199.216C202.574 195.406 204.71 190.238 204.71 184.85C204.71 179.462 202.574 174.294 198.773 170.484C194.971 166.674 189.815 164.533 184.439 164.533C179.063 164.533 173.907 166.674 170.105 170.484C166.304 174.294 164.168 179.462 164.168 184.85C164.168 190.238 166.304 195.406 170.105 199.216C173.907 203.026 179.063 205.167 184.439 205.167ZM22.271 42.6333C27.6472 42.6333 32.8032 40.4928 36.6048 36.6827C40.4063 32.8726 42.542 27.705 42.542 22.3167C42.542 16.9284 40.4063 11.7607 36.6048 7.95061C32.8032 4.1405 27.6472 2 22.271 2C16.8948 2 11.7388 4.1405 7.93724 7.95061C4.13569 11.7607 2 16.9284 2 22.3167C2 27.705 4.13569 32.8726 7.93724 36.6827C11.7388 40.4928 16.8948 42.6333 22.271 42.6333ZM22.271 205.167C27.6472 205.167 32.8032 203.026 36.6048 199.216C40.4063 195.406 42.542 190.238 42.542 184.85C42.542 179.462 40.4063 174.294 36.6048 170.484C32.8032 166.674 27.6472 164.533 22.271 164.533C16.8948 164.533 11.7388 166.674 7.93724 170.484C4.13569 174.294 2 179.462 2 184.85C2 190.238 4.13569 195.406 7.93724 199.216C11.7388 203.026 16.8948 205.167 22.271 205.167Z" stroke="url(#paint0_angular_833_637)" stroke-width="4" stroke-linejoin="round"/>
  <path d="M83.084 22.3167H123.626" stroke="black" stroke-width="4" stroke-linecap="round" stroke-linejoin="round"/>
  <path d="M83.084 22.3167H123.626" stroke="url(#paint1_angular_833_637)" stroke-width="4" stroke-linecap="round" stroke-linejoin="round"/>
  <path d="M143.897 62.95L62.813 144.217M184.439 83.2667V123.9" stroke="black" stroke-width="4" stroke-linecap="round" stroke-linejoin="round"/>
  <path d="M143.897 62.95L62.813 144.217M184.439 83.2667V123.9" stroke="url(#paint2_angular_833_637)" stroke-width="4" stroke-linecap="round" stroke-linejoin="round"/>
  <defs>
    <radialGradient id="paint0_angular_833_637" cx="0" cy="0" r="1" gradientUnits="userSpaceOnUse" gradientTransform="translate(103.355 103.583) rotate(90) scale(101.583 101.355)">
      <stop offset="0.0993526" stop-color="#16BAB2"/>
      <stop offset="0.427081" stop-color="#79FFF7"/>
      <stop offset="0.718753" stop-color="#9F53FF"/>
      <stop offset="1" stop-color="#FF98E2"/>
    </radialGradient>
    <radialGradient id="paint1_angular_833_637" cx="0" cy="0" r="1" gradientUnits="userSpaceOnUse" gradientTransform="translate(103.355 22.8167) rotate(90) scale(0.5 20.271)">
      <stop offset="0.0993526" stop-color="#16BAB2"/>
      <stop offset="0.427081" stop-color="#79FFF7"/>
      <stop offset="0.718753" stop-color="#9F53FF"/>
      <stop offset="1" stop-color="#FF98E2"/>
    </radialGradient>
    <radialGradient id="paint2_angular_833_637" cx="0" cy="0" r="1" gradientUnits="userSpaceOnUse" gradientTransform="translate(123.626 103.583) rotate(90) scale(40.6333 60.813)">
      <stop offset="0.0993526" stop-color="#16BAB2"/>
      <stop offset="0.427081" stop-color="#79FFF7"/>
      <stop offset="0.718753" stop-color="#9F53FF"/>
      <stop offset="1" stop-color="#FF98E2"/>
    </radialGradient>
  </defs>
</svg>