<svg width="205" height="286" viewBox="0 0 205 286" fill="none" xmlns="http://www.w3.org/2000/svg">
<path d="M30.071 58.2685C22.6261 58.2685 15.4861 55.3043 10.2218 50.0281C4.95747 44.7519 2 37.5959 2 30.1342C2 22.6726 4.95747 15.5165 10.2218 10.2403C15.4861 4.96413 22.6261 2 30.071 2C37.5159 2 44.6559 4.96413 49.9202 10.2403C55.1845 15.5165 58.142 22.6726 58.142 30.1342C58.142 37.5959 55.1845 44.7519 49.9202 50.0281C44.6559 55.3043 37.5159 58.2685 30.071 58.2685ZM30.071 283.342C22.6261 283.342 15.4861 280.378 10.2218 275.102C4.95747 269.826 2 262.67 2 255.208C2 247.746 4.95747 240.59 10.2218 235.314C15.4861 230.038 22.6261 227.074 30.071 227.074C37.5159 227.074 44.6559 230.038 49.9202 235.314C55.1845 240.59 58.142 247.746 58.142 255.208C58.142 262.67 55.1845 269.826 49.9202 275.102C44.6559 280.378 37.5159 283.342 30.071 283.342ZM254.639 58.2685C247.194 58.2685 240.054 55.3043 234.79 50.0281C229.526 44.7519 226.568 37.5959 226.568 30.1342C226.568 22.6726 229.526 15.5165 234.79 10.2403C240.054 4.96413 247.194 2 254.639 2C262.084 2 269.224 4.96413 274.488 10.2403C279.753 15.5165 282.71 22.6726 282.71 30.1342C282.71 37.5959 279.753 44.7519 274.488 50.0281C269.224 55.3043 262.084 58.2685 254.639 58.2685ZM254.639 283.342C247.194 283.342 240.054 280.378 234.79 275.102C229.526 269.826 226.568 262.67 226.568 255.208C226.568 247.746 229.526 240.59 234.79 235.314C240.054 230.038 247.194 227.074 254.639 227.074C262.084 227.074 269.224 230.038 274.488 235.314C279.753 240.59 282.71 247.746 282.71 255.208C282.71 262.67 279.753 269.826 274.488 275.102C269.224 280.378 262.084 283.342 254.639 283.342Z" stroke="black" stroke-width="4" stroke-linejoin="round"/>
<path d="M30.071 58.2685C22.6261 58.2685 15.4861 55.3043 10.2218 50.0281C4.95747 44.7519 2 37.5959 2 30.1342C2 22.6726 4.95747 15.5165 10.2218 10.2403C15.4861 4.96413 22.6261 2 30.071 2C37.5159 2 44.6559 4.96413 49.9202 10.2403C55.1845 15.5165 58.142 22.6726 58.142 30.1342C58.142 37.5959 55.1845 44.7519 49.9202 50.0281C44.6559 55.3043 37.5159 58.2685 30.071 58.2685ZM30.071 283.342C22.6261 283.342 15.4861 280.378 10.2218 275.102C4.95747 269.826 2 262.67 2 255.208C2 247.746 4.95747 240.59 10.2218 235.314C15.4861 230.038 22.6261 227.074 30.071 227.074C37.5159 227.074 44.6559 230.038 49.9202 235.314C55.1845 240.59 58.142 247.746 58.142 255.208C58.142 262.67 55.1845 269.826 49.9202 275.102C44.6559 280.378 37.5159 283.342 30.071 283.342ZM254.639 58.2685C247.194 58.2685 240.054 55.3043 234.79 50.0281C229.526 44.7519 226.568 37.5959 226.568 30.1342C226.568 22.6726 229.526 15.5165 234.79 10.2403C240.054 4.96413 247.194 2 254.639 2C262.084 2 269.224 4.96413 274.488 10.2403C279.753 15.5165 282.71 22.6726 282.71 30.1342C282.71 37.5959 279.753 44.7519 274.488 50.0281C269.224 55.3043 262.084 58.2685 254.639 58.2685ZM254.639 283.342C247.194 283.342 240.054 280.378 234.79 275.102C229.526 269.826 226.568 262.67 226.568 255.208C226.568 247.746 229.526 240.59 234.79 235.314C240.054 230.038 247.194 227.074 254.639 227.074C262.084 227.074 269.224 230.038 274.488 235.314C279.753 240.59 282.71 247.746 282.71 255.208C282.71 262.67 279.753 269.826 274.488 275.102C269.224 280.378 262.084 283.342 254.639 283.342Z" stroke="url(#paint0_angular_833_643)" stroke-width="4" stroke-linejoin="round"/>
<path d="M170.426 30.1342H114.284" stroke="black" stroke-width="4" stroke-linecap="round" stroke-linejoin="round"/>
<path d="M170.426 30.1342H114.284" stroke="url(#paint1_angular_833_643)" stroke-width="4" stroke-linecap="round" stroke-linejoin="round"/>
<path d="M86.213 86.4027L198.497 198.94M30.071 114.537V170.805" stroke="black" stroke-width="4" stroke-linecap="round" stroke-linejoin="round"/>
<path d="M86.213 86.4027L198.497 198.94M30.071 114.537V170.805" stroke="url(#paint2_angular_833_643)" stroke-width="4" stroke-linecap="round" stroke-linejoin="round"/>
<defs>
<radialGradient id="paint0_angular_833_643" cx="0" cy="0" r="1" gradientUnits="userSpaceOnUse" gradientTransform="translate(142.355 142.671) rotate(90) scale(140.671 140.355)">
<stop offset="0.0993526" stop-color="#16BAB2"/>
<stop offset="0.427081" stop-color="#79FFF7"/>
<stop offset="0.718753" stop-color="#9F53FF"/>
<stop offset="1" stop-color="#FF98E2"/>
</radialGradient>
<radialGradient id="paint1_angular_833_643" cx="0" cy="0" r="1" gradientUnits="userSpaceOnUse" gradientTransform="translate(142.355 30.6342) rotate(90) scale(0.5 28.071)">
<stop offset="0.0993526" stop-color="#16BAB2"/>
<stop offset="0.427081" stop-color="#79FFF7"/>
<stop offset="0.718753" stop-color="#9F53FF"/>
<stop offset="1" stop-color="#FF98E2"/>
</radialGradient>
<radialGradient id="paint2_angular_833_643" cx="0" cy="0" r="1" gradientUnits="userSpaceOnUse" gradientTransform="translate(114.284 142.671) rotate(90) scale(56.2685 84.213)">
<stop offset="0.0993526" stop-color="#16BAB2"/>
<stop offset="0.427081" stop-color="#79FFF7"/>
<stop offset="0.718753" stop-color="#9F53FF"/>
<stop offset="1" stop-color="#FF98E2"/>
</radialGradient>
</defs>
</svg>
