<svg width="307" height="282" viewBox="0 0 307 282" fill="none" xmlns="http://www.w3.org/2000/svg">
<path d="M257.556 177.008C284.804 180.499 304.062 205.417 300.571 232.664C297.08 259.912 272.162 279.17 244.915 275.679C217.667 272.188 198.409 247.27 201.9 220.023C205.391 192.776 230.309 173.517 257.556 177.008ZM246.493 263.361C266.937 265.98 285.634 251.53 288.253 231.086C290.872 210.642 276.422 191.946 255.978 189.326C235.534 186.707 216.837 201.157 214.218 221.601C211.599 242.045 226.049 260.742 246.493 263.361Z" fill="url(#paint0_angular_59_9079)"/>
<path d="M61.9772 6.32087C89.2245 9.81177 108.483 34.73 104.992 61.9772C101.501 89.2245 76.5828 108.483 49.3355 104.992C22.0883 101.501 2.82993 76.5829 6.32082 49.3356C9.81171 22.0883 34.7299 2.82998 61.9772 6.32087ZM50.9137 92.6738C71.3579 95.2931 90.0545 80.8432 92.6738 60.3991C95.2931 39.9549 80.8432 21.2583 60.399 18.639C39.9548 16.0197 21.2582 30.4696 18.6389 50.9138C16.0196 71.3579 30.4696 90.0546 50.9137 92.6738Z" fill="url(#paint1_angular_59_9079)"/>
<path d="M284 116C284 176.751 234.751 226 174 226C113.249 226 64 176.751 64 116C64 55.2487 113.249 6 174 6C234.751 6 284 55.2487 284 116ZM91.4648 116C91.4648 161.583 128.417 198.535 174 198.535C219.583 198.535 256.535 161.583 256.535 116C256.535 70.4171 219.583 33.4648 174 33.4648C128.417 33.4648 91.4648 70.4171 91.4648 116Z" fill="url(#paint2_angular_59_9079)"/>
<path d="M174.411 144.292H215.998M174.411 144.292C174.411 145.463 174.18 146.622 173.733 147.703C173.285 148.784 172.628 149.767 171.801 150.594C170.973 151.422 169.991 152.078 168.909 152.526C167.828 152.974 166.669 153.205 165.499 153.205C164.328 153.205 163.169 152.974 162.088 152.526C161.007 152.078 160.024 151.422 159.197 150.594C158.369 149.767 157.713 148.784 157.265 147.703C156.817 146.622 156.586 145.463 156.586 144.292C156.586 143.122 156.817 141.963 157.265 140.882C157.713 139.8 158.369 138.818 159.197 137.99C160.024 137.163 161.007 136.506 162.088 136.058C163.169 135.611 164.328 135.38 165.499 135.38C166.669 135.38 167.828 135.611 168.909 136.058C169.991 136.506 170.973 137.163 171.801 137.99C172.628 138.818 173.285 139.8 173.733 140.882C174.18 141.963 174.411 143.122 174.411 144.292ZM215.998 144.292L204.117 132.411M215.998 144.292L204.117 156.173M150.649 81.9123C150.649 84.2761 151.588 86.5429 153.259 88.2143C154.931 89.8857 157.198 90.8247 159.561 90.8247C161.925 90.8247 164.192 89.8857 165.863 88.2143C167.535 86.5429 168.474 84.2761 168.474 81.9123C168.474 79.5486 167.535 77.2818 165.863 75.6104C164.192 73.939 161.925 73 159.561 73C157.198 73 154.931 73.939 153.259 75.6104C151.588 77.2818 150.649 79.5486 150.649 81.9123ZM174.411 111.618C174.411 113.982 175.35 116.249 177.021 117.92C178.693 119.591 180.96 120.53 183.323 120.53C185.687 120.53 187.954 119.591 189.625 117.92C191.297 116.249 192.236 113.982 192.236 111.618C192.236 109.254 191.297 106.987 189.625 105.316C187.954 103.645 185.687 102.706 183.323 102.706C180.96 102.706 178.693 103.645 177.021 105.316C175.35 106.987 174.411 109.254 174.411 111.618Z" stroke="#39CB75" stroke-width="4" stroke-linecap="round" stroke-linejoin="round"/>
<path d="M174.41 111.619H149.164C144.887 111.703 140.814 113.462 137.819 116.516C134.824 119.571 133.147 123.678 133.147 127.956C133.147 132.233 134.824 136.341 137.819 139.395C140.814 142.45 144.887 144.208 149.164 144.293H156.585M192.235 111.619H201.147C205.086 111.619 208.864 110.054 211.65 107.268C214.435 104.483 216 100.705 216 96.7657C216 92.8265 214.435 89.0486 211.65 86.2631C208.864 83.4777 205.086 81.9128 201.147 81.9128H168.46M150.648 81.9128H132.823" stroke="#39CB75" stroke-width="4" stroke-linecap="round" stroke-linejoin="round"/>
<defs>
<radialGradient id="paint0_angular_59_9079" cx="0" cy="0" r="1" gradientUnits="userSpaceOnUse" gradientTransform="translate(249.515 239.772) rotate(-7.92552) scale(51.5484)">
<stop offset="0.61" stop-color="#0F1C1E"/>
<stop offset="1" stop-color="#39CB75"/>
</radialGradient>
<radialGradient id="paint1_angular_59_9079" cx="0" cy="0" r="1" gradientUnits="userSpaceOnUse" gradientTransform="translate(53.9359 69.085) rotate(-7.92552) scale(51.5484)">
<stop offset="0.61" stop-color="#0F1C1E"/>
<stop offset="1" stop-color="#39CB75"/>
</radialGradient>
<radialGradient id="paint2_angular_59_9079" cx="0" cy="0" r="1" gradientUnits="userSpaceOnUse" gradientTransform="translate(144.059 116) rotate(74.7736) scale(114.002)">
<stop offset="0.61" stop-color="#0F1C1E"/>
<stop offset="1" stop-color="#39CB75"/>
</radialGradient>
</defs>
</svg>
