<svg width="151" height="404" viewBox="0 0 151 404" fill="none" xmlns="http://www.w3.org/2000/svg">
<path d="M81.5547 27.3333C88.9185 27.3333 94.888 21.3638 94.888 14C94.888 6.63621 88.9185 0.666664 81.5547 0.666664C74.1909 0.666664 68.2214 6.63621 68.2214 14C68.2214 21.3638 74.1909 27.3333 81.5547 27.3333ZM84.0547 87L84.0547 83.35L79.0547 83.35L79.0547 87L84.0547 87ZM84.0547 76.05L84.0547 68.75L79.0547 68.75L79.0547 76.05L84.0547 76.05ZM84.0547 61.45L84.0547 54.15L79.0547 54.15L79.0547 61.45L84.0547 61.45ZM84.0547 46.85L84.0547 39.55L79.0547 39.55L79.0547 46.85L84.0547 46.85ZM84.0547 32.25L84.0547 24.95L79.0547 24.95L79.0547 32.25L84.0547 32.25ZM84.0547 17.65L84.0547 14L79.0547 14L79.0547 17.65L84.0547 17.65Z" fill="url(#paint0_linear_747_11219)"/>
<path d="M21.2061 143.747C14.9911 139.797 6.75106 141.633 2.80137 147.848C-1.14831 154.063 0.688042 162.303 6.90298 166.253C13.1179 170.203 21.358 168.366 25.3077 162.151C29.2574 155.936 27.421 147.696 21.2061 143.747ZM30.5265 145.174L29.2458 143.027L30.5265 145.174ZM79.0523 75.616C79.1007 76.6559 79.1165 77.6857 79.1008 78.7057L84.1002 78.7825C84.1174 77.6593 84.1001 76.5264 84.0469 75.3837L79.0523 75.616ZM78.6189 84.854C78.3269 86.9064 77.9074 88.9197 77.37 90.8947L82.1947 92.2073C82.785 90.0374 83.2471 87.821 83.569 85.5583L78.6189 84.854ZM75.3934 96.7574C74.6226 98.6696 73.7416 100.545 72.7597 102.385L77.1707 104.739C78.2324 102.75 79.19 100.713 80.0309 98.6266L75.3934 96.7574ZM69.5541 107.745C68.409 109.472 67.1771 111.164 65.8672 112.821L69.7899 115.921C71.1804 114.162 72.4947 112.358 73.7211 110.508L69.5541 107.745ZM61.7787 117.617C60.3663 119.16 58.89 120.669 57.3582 122.145L60.8272 125.746C62.4295 124.202 63.9794 122.618 65.4669 120.993L61.7787 117.617ZM52.665 126.42C51.0668 127.8 49.4247 129.147 47.7473 130.461L50.8305 134.397C52.5666 133.037 54.2703 131.64 55.9324 130.205L52.665 126.42ZM42.6416 134.287C40.9105 135.53 39.1536 136.739 37.3791 137.916L40.1429 142.083C41.9655 140.874 43.7733 139.629 45.5574 138.349L42.6416 134.287ZM31.9852 141.366C31.0739 141.928 30.1603 142.482 29.2458 143.027L31.8072 147.322C32.7426 146.764 33.6775 146.197 34.6109 145.621L31.9852 141.366ZM29.2458 143.027L25.1278 145.484L27.6892 149.778L31.8072 147.322L29.2458 143.027ZM16.8918 150.396L12.7738 152.853L15.3352 157.147L19.4532 154.691L16.8918 150.396Z" fill="url(#paint1_linear_747_11219)"/>
<path d="M124.857 155.457C131.072 151.508 139.312 153.344 143.262 159.559C147.212 165.774 145.375 174.014 139.16 177.964C132.945 181.913 124.705 180.077 120.756 173.862C116.806 167.647 118.642 159.407 124.857 155.457ZM118.364 157.748L119.737 155.658L118.364 157.748ZM78.5327 89.091C78.48 90.2252 78.4609 91.3513 78.4743 92.4692L73.4747 92.5292C73.4601 91.314 73.4808 90.0904 73.5381 88.8587L78.5327 89.091ZM78.9519 99.1963C79.245 101.443 79.6684 103.655 80.2131 105.83L75.3629 107.045C74.7724 104.686 74.3125 102.285 73.9939 99.8431L78.9519 99.1963ZM82.2189 112.291C83.004 114.406 83.9032 116.484 84.9075 118.521L80.4226 120.732C79.3458 118.547 78.3784 116.313 77.5315 114.031L82.2189 112.291ZM88.2044 124.478C89.3901 126.404 90.6688 128.291 92.0317 130.134L88.0114 133.106C86.568 131.154 85.2094 129.151 83.9461 127.098L88.2044 124.478ZM96.3175 135.478C97.808 137.199 99.3704 138.876 100.996 140.507L97.4551 144.037C95.7504 142.327 94.1081 140.564 92.538 138.752L96.3175 135.478ZM106.011 145.221C107.73 146.737 109.502 148.206 111.317 149.625L108.238 153.564C106.347 152.086 104.499 150.554 102.704 148.97L106.011 145.221ZM116.875 153.723C117.82 154.381 118.775 155.026 119.737 155.658L116.992 159.837C115.993 159.181 115.002 158.511 114.019 157.827L116.875 153.723ZM119.737 155.658L123.148 157.899L120.403 162.078L116.992 159.837L119.737 155.658ZM129.97 162.38L133.381 164.621L130.636 168.8L127.225 166.559L129.97 162.38Z" fill="url(#paint2_linear_747_11219)"/>
<path d="M77.3222 134L83.7553 207.097C86.2631 235.591 80.4934 264.204 67.139 289.5V289.5L68.9874 286" stroke="url(#paint3_linear_747_11219)" stroke-width="5.40498" stroke-dasharray="7.34 7.34"/>
<path d="M145.87 393.13C151.754 387.768 152.176 378.652 146.813 372.769C141.451 366.886 132.335 366.463 126.452 371.826C120.569 377.188 120.146 386.304 125.509 392.187C130.871 398.07 139.987 398.493 145.87 393.13ZM62.6815 286.808L65.3017 286.147L62.6815 286.808ZM137.885 380.397L135.002 378.009L131.555 382.172L134.437 384.559L137.885 380.397ZM129.237 373.235L123.472 368.461L120.024 372.623L125.789 377.398L129.237 373.235ZM117.706 363.686L111.941 358.912L108.494 363.074L114.259 367.849L117.706 363.686ZM106.176 354.137L103.293 351.75L99.8459 355.913L102.729 358.3L106.176 354.137ZM103.444 351.885C102.519 350.994 101.607 350.091 100.709 349.176L96.8525 352.963C97.786 353.913 98.7334 354.852 99.6948 355.778L103.444 351.885ZM95.4704 343.535C93.7749 341.604 92.1355 339.629 90.5538 337.612L86.3003 340.946C87.9439 343.043 89.6473 345.095 91.4091 347.102L95.4704 343.535ZM85.9743 331.423C84.505 329.318 83.0951 327.172 81.7463 324.99L77.1485 327.832C78.5501 330.099 80.015 332.329 81.5418 334.516L85.9743 331.423ZM77.8828 318.331C76.6575 316.077 75.4946 313.789 74.3958 311.468L69.5108 313.781C70.6526 316.192 71.8609 318.571 73.1341 320.913L77.8828 318.331ZM71.2961 304.421C70.3296 302.047 69.4283 299.643 68.5935 297.213L63.4817 298.969C64.3491 301.494 65.2857 303.992 66.29 306.459L71.2961 304.421ZM66.2962 289.866C65.9478 288.632 65.6162 287.392 65.3017 286.147L60.0612 287.47C60.388 288.764 60.7326 290.052 61.0946 291.334L66.2962 289.866ZM65.3017 286.147L64.6193 283.444L59.3788 284.768L60.0612 287.47L65.3017 286.147ZM63.2545 278.04L62.5722 275.338L57.3317 276.662L58.0141 279.364L63.2545 278.04Z" fill="url(#paint4_linear_747_11219)"/>
<path d="M26.7092 344.249C19.9445 340.067 11.0706 342.161 6.88882 348.926C2.70701 355.691 4.80085 364.564 11.5655 368.746C18.3302 372.928 27.2041 370.834 31.3859 364.069C35.5678 357.305 33.4739 348.431 26.7092 344.249ZM57.6396 308L59.8621 309.533L59.9338 309.429L59.9956 309.319L57.6396 308ZM47.6382 322.498L49.8066 324.107L49.8343 324.07L49.8607 324.031L47.6382 322.498ZM36.1377 337.998L38.1257 339.825L38.2216 339.72L38.306 339.607L36.1377 337.998ZM62.2825 294.18L60.5328 297.305L65.2446 299.943L66.9943 296.818L62.2825 294.18ZM57.0334 303.556L55.2837 306.681L59.9956 309.319L61.7452 306.194L57.0334 303.556ZM55.4172 306.467L52.9168 310.091L57.3618 313.158L59.8621 309.533L55.4172 306.467ZM47.9161 317.34L45.4158 320.965L49.8607 324.031L52.3611 320.407L47.9161 317.34ZM45.4699 320.889L42.5948 324.764L46.9314 327.982L49.8066 324.107L45.4699 320.889ZM36.8445 332.514L33.9694 336.389L38.306 339.607L41.1811 335.732L36.8445 332.514ZM34.1496 336.171L29.8995 340.796L33.8757 344.45L38.1257 339.825L34.1496 336.171ZM21.3994 350.046L17.1493 354.671L21.1255 358.325L25.3755 353.7L21.3994 350.046Z" fill="#3FB068"/>
<path d="M16.3087 148.002L15.4341 149.903L18.1206 154.941L14.3124 162.076L16.2958 162.173L20.043 154.995L16.3087 148.002Z" fill="white"/>
<path d="M17.2533 155.196L14.3438 149.533L11.5599 149.337L8.69329 154.719L11.4088 160.004L12.1874 158.535L10.2962 154.854L12.9151 149.966L15.279 154.567L11.8207 153.919L11.3119 154.823L14.5587 160.866L14.6797 160.631L15.3228 159.415L13.359 155.593L16.7445 156.099L17.2533 155.196Z" fill="white"/>
<path d="M134.309 160.002L133.434 161.903L136.121 166.941L132.312 174.076L134.296 174.173L138.043 166.995L134.309 160.002Z" fill="white"/>
<path d="M135.253 167.196L132.344 161.533L129.56 161.337L126.693 166.719L129.409 172.004L130.187 170.535L128.296 166.854L130.915 161.966L133.279 166.567L129.821 165.919L129.312 166.823L132.559 172.866L132.68 172.631L133.323 171.415L131.359 167.593L134.744 168.099L135.253 167.196Z" fill="white"/>
<path d="M21.3068 350.002L20.4321 351.903L23.1187 356.941L19.3104 364.076L21.2938 364.173L25.0411 356.995L21.3068 350.002Z" fill="white"/>
<path d="M22.2513 357.196L19.3419 351.533L16.558 351.337L13.6913 356.719L16.4068 362.004L17.1854 360.535L15.2943 356.854L17.9131 351.966L20.277 356.567L16.8188 355.919L16.31 356.823L19.5567 362.866L19.6777 362.631L20.3209 361.415L18.357 357.593L21.7425 358.099L22.2513 357.196Z" fill="white"/>
<path d="M138.167 376.002L137.292 377.903L139.979 382.941L136.171 390.076L138.154 390.173L141.901 382.995L138.167 376.002Z" fill="white"/>
<path d="M139.112 383.196L136.202 377.533L133.418 377.337L130.552 382.719L133.267 388.004L134.046 386.535L132.155 382.854L134.773 377.966L137.137 382.567L133.679 381.919L133.17 382.823L136.417 388.866L136.538 388.631L137.181 387.415L135.217 383.593L138.603 384.099L139.112 383.196Z" fill="white"/>
<defs>
<linearGradient id="paint0_linear_747_11219" x1="77.9004" y1="5.37865" x2="80.298" y2="107.422" gradientUnits="userSpaceOnUse">
<stop stopColor="#40B66B"/>
<stop offset="0.641878" stopColor="#131321" stop-opacity="0"/>
</linearGradient>
<linearGradient id="paint1_linear_747_11219" x1="24.6442" y1="181.095" x2="89.5498" y2="51.4997" gradientUnits="userSpaceOnUse">
<stop offset="0.161458" stopColor="#3EAD67"/>
<stop offset="0.790679" stopColor="#1B1C26"/>
</linearGradient>
<linearGradient id="paint2_linear_747_11219" x1="136.45" y1="200.457" x2="74.7667" y2="77.657" gradientUnits="userSpaceOnUse">
<stop offset="0.32522" stopColor="#3CA463"/>
<stop offset="0.790665" stopColor="#131321" stop-opacity="0"/>
</linearGradient>
<linearGradient id="paint3_linear_747_11219" x1="-4.94529" y1="459.5" x2="73.5431" y2="76.1672" gradientUnits="userSpaceOnUse">
<stop offset="0.446785" stopColor="#40B66B"/>
<stop offset="0.920835" stopColor="#131321" stop-opacity="0"/>
</linearGradient>
<linearGradient id="paint4_linear_747_11219" x1="139.373" y1="365.201" x2="66.9158" y2="272.641" gradientUnits="userSpaceOnUse">
<stop offset="0.237456" stopColor="#3FB068"/>
<stop offset="0.838604" stopColor="#131321" stop-opacity="0"/>
</linearGradient>
</defs>
</svg>
